<?xml version="1.0" standalone="no"?>
<!DOCTYPE svg PUBLIC "-//W3C//DTD SVG 20010904//EN"
 "http://www.w3.org/TR/2001/REC-SVG-20010904/DTD/svg10.dtd">
<svg version="1.0" xmlns="http://www.w3.org/2000/svg"
 width="1000.000000pt" height="1000.000000pt" viewBox="0 0 1000.000000 1000.000000"
 preserveAspectRatio="xMidYMid meet">
<metadata>
Created by potrace 1.11, written by Peter Selinger 2001-2013
</metadata>
<g transform="translate(0.000000,1000.000000) scale(0.100000,-0.100000)"
fill="#000000" stroke="none">
<path d="M6760 8819 c-88 -14 -148 -51 -243 -149 -47 -49 -88 -98 -92 -109 -3
-11 -15 -23 -26 -26 -10 -4 -19 -14 -19 -24 0 -18 -57 -57 -77 -53 -7 2 -13
-5 -13 -14 0 -10 5 -14 15 -10 9 3 15 0 15 -8 0 -8 -6 -17 -12 -19 -10 -4 -10
-6 0 -6 7 -1 23 9 36 22 23 22 61 47 71 47 9 0 5 -39 -4 -44 -15 -9 -52 -87
-72 -151 -15 -46 -17 -66 -9 -89 14 -40 13 -56 -4 -56 -8 0 -20 16 -27 35 -7
19 -19 35 -27 35 -7 0 -10 -5 -6 -12 4 -6 3 -9 -2 -5 -14 8 -1 160 14 165 17
5 15 22 -3 22 -8 0 -15 -5 -15 -10 0 -7 -6 -7 -18 -1 -13 7 -37 6 -78 -4 -39
-9 -64 -10 -76 -4 -10 6 -23 7 -29 3 -6 -3 -24 3 -40 15 -37 27 -51 20 -36
-19 9 -22 16 -29 30 -24 10 3 24 0 32 -6 12 -10 15 -9 15 4 0 14 3 15 23 4 19
-10 20 -13 5 -16 -26 -5 -22 -29 8 -48 14 -9 32 -30 40 -47 9 -16 34 -47 57
-68 47 -46 46 -58 -4 -25 -19 13 -45 27 -58 31 -13 4 -32 14 -42 24 -11 9 -32
18 -47 21 -19 4 -32 16 -45 43 -10 20 -23 37 -28 37 -5 0 -9 7 -9 15 0 8 -3
14 -8 12 -4 -1 -18 8 -31 20 -13 12 -28 20 -32 17 -5 -2 -17 4 -27 14 -11 11
-42 25 -70 31 -27 7 -59 21 -70 32 -12 10 -27 16 -34 14 -8 -3 -31 1 -51 10
-20 8 -39 15 -42 15 -34 -1 -46 2 -57 13 -15 15 -168 21 -168 6 0 -14 -38 -11
-44 4 -3 8 -8 7 -16 -6 -8 -12 -18 -16 -31 -12 -10 4 -24 3 -31 -1 -6 -4 -25
-8 -42 -9 -17 0 -37 -4 -44 -9 -6 -4 -12 -3 -12 3 0 5 6 12 13 14 8 4 4 12
-13 26 -15 12 -19 21 -11 21 11 0 11 3 1 15 -7 9 -19 14 -27 11 -7 -3 -13 1
-13 9 0 14 30 21 68 16 6 -1 12 2 12 6 0 4 30 9 66 9 36 1 77 8 91 15 19 10
26 10 32 1 8 -14 121 -25 121 -12 0 15 40 22 54 10 8 -6 18 -10 22 -8 13 3 96
-13 114 -22 8 -5 30 -14 48 -20 17 -7 32 -16 32 -21 0 -4 16 -11 35 -15 19 -3
35 -10 35 -14 0 -4 18 -15 40 -25 22 -10 40 -22 40 -27 0 -4 5 -8 10 -8 33 0
-34 89 -67 90 -7 0 -16 6 -20 13 -9 13 -118 55 -168 64 -16 3 -35 9 -41 14 -6
5 -46 14 -90 20 -130 18 -347 -1 -449 -41 -11 -4 -38 -13 -60 -20 -49 -15
-148 -74 -194 -115 -77 -68 -121 -120 -117 -137 2 -11 -2 -18 -11 -18 -8 0
-11 -4 -8 -10 3 -5 0 -8 -7 -5 -7 2 -21 -6 -30 -19 -22 -30 -58 -123 -50 -130
11 -12 18 -5 31 32 17 48 39 72 59 65 12 -5 14 -1 10 15 -4 14 -2 22 6 22 15
0 56 45 56 61 0 7 11 9 29 6 28 -6 30 -4 36 33 5 28 12 40 23 40 10 0 27 3 40
6 17 5 22 2 22 -13 0 -11 3 -23 7 -26 12 -12 31 13 26 34 -4 13 2 27 16 40 14
13 21 15 21 7 0 -7 14 -19 30 -26 17 -8 30 -18 30 -23 0 -12 -17 -11 -41 1
-16 9 -19 7 -19 -9 0 -19 -28 -43 -82 -70 -15 -8 -24 -19 -21 -26 5 -16 -30
-37 -54 -33 -9 2 -18 -3 -20 -9 -3 -7 3 -13 12 -13 9 0 13 -5 10 -11 -4 -6
-13 -8 -21 -5 -9 3 -15 -6 -20 -29 -3 -18 -22 -51 -41 -72 -19 -21 -39 -48
-43 -60 -5 -13 -16 -23 -23 -23 -24 0 -47 -80 -47 -160 0 -41 7 -115 16 -165
9 -49 18 -103 21 -120 2 -16 8 -39 13 -50 14 -33 41 -118 49 -155 14 -59 22
-72 42 -67 22 6 22 3 10 -40 -10 -34 4 -113 20 -113 5 0 8 -5 7 -11 -2 -6 3
-14 11 -16 9 -4 11 0 7 14 -13 41 -15 103 -3 103 8 0 9 3 1 8 -6 4 -13 17 -17
30 -5 20 -2 22 16 16 32 -9 47 -24 41 -38 -3 -8 4 -16 15 -19 24 -6 28 -27 6
-27 -24 0 -18 -37 7 -44 18 -4 20 -8 10 -18 -22 -22 -12 -29 18 -11 34 20 35
21 17 48 -7 11 -19 39 -27 63 -9 30 -16 39 -22 30 -6 -9 -8 -7 -6 7 1 11 -2
27 -7 35 -19 29 -57 228 -55 287 0 24 -5 45 -12 50 -13 8 -17 50 -18 196 0 86
28 166 62 175 20 5 24 17 8 27 -18 11 -10 25 15 25 28 0 34 15 9 24 -9 3 -17
6 -20 6 -8 0 -31 -56 -27 -67 6 -18 -5 -16 -24 3 -14 14 -14 19 2 54 10 21 24
41 31 44 8 3 14 14 14 25 0 22 93 109 155 145 104 61 418 122 440 86 3 -6 16
-8 29 -4 20 5 92 -12 201 -48 22 -7 48 -21 57 -30 10 -10 24 -18 31 -18 8 0
24 -9 37 -20 13 -11 29 -20 36 -20 7 0 21 -9 31 -19 10 -11 29 -21 42 -23 14
-1 26 -9 29 -16 2 -7 -2 -11 -10 -10 -7 2 -13 -4 -13 -12 0 -11 9 -14 32 -12
20 2 34 -2 40 -12 4 -8 35 -29 68 -46 33 -17 64 -35 70 -39 5 -5 21 -12 35
-16 14 -4 33 -15 43 -24 13 -11 40 -16 90 -17 71 -1 72 -2 75 -29 2 -16 11
-29 22 -32 24 -6 15 -30 -13 -37 -26 -6 -152 24 -185 45 -20 12 -24 12 -32 -1
-6 -9 -6 -16 0 -18 6 -2 10 -8 10 -13 0 -15 -47 -10 -60 6 -10 13 -9 15 9 15
12 0 21 6 21 15 0 8 -9 15 -20 15 -11 0 -20 -5 -20 -11 0 -7 -7 -8 -17 -4 -10
4 -27 7 -38 7 -25 -1 -64 45 -65 76 0 12 -6 22 -13 22 -8 0 -39 19 -70 43 -31
23 -68 50 -82 60 -14 10 -25 23 -25 30 0 7 4 6 10 -3 5 -8 13 -11 17 -6 4 4
-4 18 -19 30 -16 12 -28 27 -28 34 0 18 -37 15 -44 -4 -5 -14 -9 -13 -33 3
-72 49 -225 115 -265 114 -10 0 -20 4 -23 10 -7 10 -74 10 -120 0 l-30 -7 25
-9 c23 -7 24 -8 5 -15 -11 -4 -30 -3 -42 3 -30 13 -77 1 -69 -19 3 -9 1 -12
-4 -9 -6 3 -10 1 -10 -4 0 -6 -7 -11 -15 -11 -8 0 -14 6 -13 13 3 11 -19 12
-49 2 -16 -6 -17 -35 -1 -35 16 0 -71 -82 -102 -96 -14 -7 -45 -26 -69 -44
l-43 -32 27 -14 c35 -18 39 -18 31 2 -4 11 -1 14 13 9 10 -3 24 1 31 10 14 16
30 20 30 6 0 -4 -12 -26 -27 -47 -43 -64 -115 -214 -110 -228 4 -9 -5 -16 -24
-20 -33 -6 -40 -26 -9 -26 19 0 20 -5 17 -60 -2 -45 -8 -64 -23 -75 -19 -16
-19 -16 1 -13 23 4 33 -32 60 -212 22 -146 21 -142 44 -182 11 -21 22 -49 24
-63 1 -14 18 -40 35 -58 30 -31 31 -35 17 -47 -14 -11 -18 -11 -25 -1 -5 9
-15 11 -31 5 -13 -4 -32 -7 -43 -5 -15 2 -10 -7 20 -45 25 -30 35 -49 27 -51
-7 -3 -13 -9 -13 -14 0 -13 34 -11 48 3 6 6 15 8 19 4 4 -4 0 -12 -10 -17 -9
-6 -17 -17 -17 -25 0 -9 5 -12 11 -8 7 4 20 -4 30 -17 13 -18 21 -21 29 -13 9
9 6 23 -9 55 -12 23 -21 51 -21 62 0 17 5 19 32 13 38 -8 73 -38 99 -86 10
-19 32 -48 49 -64 16 -16 30 -35 30 -43 0 -7 3 -13 8 -13 11 0 59 -81 67 -112
4 -15 13 -29 21 -32 8 -3 14 -11 13 -18 -1 -7 1 -21 6 -31 10 -24 1 -31 -61
-51 -32 -11 -55 -25 -62 -39 -9 -19 -11 -17 -11 21 -1 28 -6 45 -16 48 -8 4
-15 16 -15 29 0 13 7 25 15 29 21 8 19 36 -4 36 -24 0 -37 17 -46 58 -3 17
-11 32 -16 32 -5 0 -9 7 -9 15 0 8 -7 15 -16 15 -11 0 -13 6 -9 19 3 11 1 22
-5 26 -6 3 -8 11 -5 16 10 14 -19 10 -41 -6 -18 -14 -18 -16 -2 -29 10 -7 21
-28 24 -45 5 -23 11 -30 22 -26 11 4 13 0 9 -15 -3 -13 3 -31 18 -48 31 -37
43 -99 21 -108 -9 -3 -16 -10 -16 -16 0 -5 6 -6 13 -2 8 5 7 2 -2 -9 -12 -15
-12 -19 5 -32 10 -8 14 -15 7 -15 -7 0 -10 -7 -7 -15 4 -10 14 -13 29 -9 30 7
37 -6 21 -38 -13 -24 -12 -27 11 -37 21 -10 23 -14 12 -27 -11 -13 -10 -18 5
-26 13 -7 16 -17 11 -39 -6 -28 -6 -29 29 -25 l36 5 -20 -21 c-14 -16 -17 -25
-9 -34 6 -7 8 -22 4 -33 -5 -17 1 -24 29 -37 21 -11 32 -22 29 -30 -3 -9 5
-16 26 -20 17 -4 35 -12 41 -19 14 -16 1 -48 -16 -41 -7 3 -16 1 -19 -4 -4 -6
2 -10 12 -10 10 0 28 -3 41 -6 21 -6 22 -4 16 20 -6 24 -3 26 23 26 16 0 39 7
51 16 13 9 26 13 29 10 4 -3 1 -6 -5 -6 -7 0 -12 -4 -12 -10 0 -5 11 -10 25
-10 14 0 25 6 25 13 0 11 19 14 79 13 44 -1 83 -4 87 -8 12 -13 24 -9 24 7 0
17 23 16 30 -2 4 -10 10 -10 30 0 26 13 265 17 285 5 6 -3 35 -11 67 -17 31
-5 73 -19 93 -29 30 -17 41 -18 65 -9 37 14 39 27 5 27 -14 0 -42 7 -62 15
-19 8 -51 15 -70 15 -20 0 -32 4 -28 10 9 15 -5 32 -18 22 -19 -14 -57 -21
-57 -10 0 5 -29 8 -68 7 -37 -1 -77 3 -89 9 -12 7 -33 12 -46 12 -13 0 -43 14
-65 30 -23 17 -48 30 -56 30 -8 0 -18 5 -21 11 -5 7 5 8 32 3 21 -4 47 -8 58
-8 11 -1 25 -5 32 -9 7 -4 36 -5 64 -1 36 5 50 4 45 -4 -12 -20 12 -22 56 -3
57 24 121 21 152 -8 13 -12 35 -21 54 -21 17 0 34 -4 37 -10 3 -5 17 -10 31
-10 13 0 24 -4 24 -10 0 -5 9 -10 19 -10 11 0 29 -13 40 -29 22 -31 26 -42 14
-40 -22 4 -43 -2 -43 -11 0 -6 8 -14 18 -17 9 -4 20 -11 24 -17 4 -5 25 -11
47 -12 22 -1 50 -9 63 -18 12 -9 32 -16 43 -16 12 0 30 -7 41 -15 18 -14 17
-15 -17 -9 -42 7 -50 -1 -38 -34 7 -18 13 -21 36 -16 16 3 33 13 39 20 6 8 21
14 33 14 15 0 21 -6 21 -24 0 -21 6 -25 46 -31 59 -8 82 -13 103 -20 10 -3 24
1 31 10 8 9 17 12 24 7 18 -14 48 -23 41 -12 -4 6 18 11 57 12 99 3 101 3 131
23 42 27 20 35 -53 19 -71 -15 -229 -19 -175 -4 17 4 56 11 88 15 31 3 57 11
57 16 0 5 13 9 29 9 17 0 33 5 36 10 4 6 10 8 14 6 12 -8 128 42 185 79 28 18
64 47 80 64 17 17 40 31 53 31 31 0 29 12 -7 33 -29 18 -30 18 -30 -1 0 -23
-60 -56 -74 -42 -13 13 -2 23 27 23 19 0 23 4 21 22 -1 15 10 35 31 56 18 19
31 37 28 41 -2 5 1 8 6 8 6 0 11 7 11 16 0 8 11 39 24 67 32 69 60 196 52 239
-3 18 -10 67 -15 109 -5 42 -18 91 -30 111 -11 20 -23 53 -27 72 -3 20 -10 36
-15 36 -17 0 -9 22 11 27 17 5 18 7 4 28 -8 12 -13 29 -12 36 2 9 -5 13 -19
12 -23 -3 -31 11 -13 22 15 10 12 35 -5 35 -8 0 -15 5 -15 10 0 6 9 10 21 10
11 0 18 -4 15 -8 -5 -9 20 -34 53 -52 12 -6 21 -21 21 -33 0 -13 21 -47 50
-79 28 -31 50 -64 50 -73 0 -9 9 -30 21 -46 11 -16 17 -29 12 -29 -4 0 -2 -4
6 -9 14 -9 25 -54 45 -183 21 -133 -13 -354 -56 -366 -22 -5 -24 -22 -3 -22 8
0 15 -7 15 -15 0 -8 5 -15 10 -15 14 0 30 44 30 80 0 16 4 30 9 32 4 2 11 37
14 78 3 41 9 100 12 130 5 36 1 80 -10 130 -9 41 -21 98 -27 125 -5 28 -13 55
-18 60 -4 6 -10 23 -14 39 -6 26 -18 45 -66 103 -6 7 -10 16 -9 20 5 30 -4 51
-26 61 -14 6 -25 16 -25 21 0 5 -15 26 -34 46 -20 21 -32 43 -29 51 4 10 -2
14 -20 14 -16 0 -39 13 -59 33 -47 47 -102 87 -121 87 -8 0 -17 3 -19 8 -8 18
-94 72 -115 72 -26 0 -27 -3 -13 -31 6 -11 21 -19 35 -19 19 0 67 -32 105 -70
3 -3 14 -7 25 -8 27 -5 30 -9 15 -26 -10 -13 -9 -19 6 -33 12 -13 19 -14 22
-5 6 18 26 15 46 -7 24 -27 9 -58 -26 -52 -14 2 -8 -20 7 -25 8 -4 12 -10 9
-15 -7 -13 -44 8 -44 26 0 7 -18 28 -40 45 -23 18 -38 35 -35 38 3 3 11 0 17
-6 21 -21 29 -13 12 14 -10 14 -34 34 -54 44 -20 10 -42 25 -49 33 -7 9 -29
18 -50 22 -38 6 -72 34 -84 67 -8 23 8 31 32 16 11 -7 23 -9 27 -5 14 14 -14
29 -61 34 l-46 6 6 -29 c4 -16 9 -37 12 -46 3 -14 -2 -18 -19 -18 -13 0 -28 4
-34 10 -5 5 -30 12 -54 14 -51 5 -120 32 -120 46 0 6 -9 10 -20 10 -11 0 -20
-7 -20 -15 0 -8 6 -15 13 -15 16 0 58 -42 61 -61 1 -8 5 -20 10 -27 4 -7 5
-16 2 -19 -3 -3 -11 6 -17 20 -7 15 -15 25 -19 22 -7 -5 7 -169 18 -204 9 -28
-9 -158 -32 -223 -21 -63 -70 -143 -87 -143 -8 0 -20 -8 -28 -18 -10 -14 -16
-16 -25 -7 -8 8 -7 14 7 21 9 6 17 17 17 24 0 27 -19 16 -36 -21 -9 -20 -28
-41 -41 -47 -12 -5 -23 -16 -23 -24 0 -7 -5 -13 -10 -13 -6 0 -36 -18 -66 -41
-30 -22 -60 -38 -67 -36 -7 2 -30 -2 -52 -10 -22 -8 -84 -16 -138 -19 -86 -5
-101 -3 -112 12 -11 16 -15 16 -58 -9 -46 -27 -87 -35 -87 -17 0 5 -28 9 -62
9 -141 0 -168 2 -168 11 0 15 -16 12 -34 -5 -13 -14 -16 -13 -25 4 -6 11 -12
47 -13 80 -2 41 -7 61 -15 61 -8 0 -13 14 -13 38 0 20 -9 55 -19 77 l-19 40 0
-115 c0 -109 -3 -151 -20 -279 -8 -65 -32 -82 -33 -24 0 21 -3 56 -6 78 -7 49
-7 51 2 211 l8 131 -32 19 c-32 19 -43 54 -15 54 8 0 12 5 9 11 -4 6 -13 8
-21 5 -23 -9 -30 43 -10 78 13 23 14 31 4 37 -9 6 -8 18 4 56 16 47 16 47 17
14 2 -58 12 -28 21 62 10 99 22 126 81 184 38 38 44 41 54 26 10 -14 9 -20 -6
-32 -10 -9 -29 -37 -44 -63 -24 -45 -26 -59 -32 -231 -6 -182 -6 -184 16 -190
12 -3 21 0 21 6 0 7 12 24 25 40 21 24 27 26 45 15 30 -19 25 -38 -10 -38 -16
0 -30 -4 -30 -10 0 -5 8 -10 18 -10 16 -1 16 -1 0 -11 -10 -5 -15 -16 -12 -24
4 -8 1 -15 -5 -15 -6 0 -11 -4 -11 -8 0 -5 7 -9 15 -9 8 0 15 6 15 14 0 7 5
13 10 13 6 0 10 -7 10 -15 0 -8 6 -15 14 -15 8 0 16 -10 18 -22 2 -16 14 -26
37 -34 19 -6 45 -23 57 -38 13 -14 32 -26 44 -26 12 0 31 -11 44 -25 13 -14
28 -25 35 -25 6 0 11 -6 11 -14 0 -21 18 -30 34 -17 18 15 109 22 117 10 17
-28 279 -1 299 31 5 8 12 11 16 8 3 -4 21 4 39 17 17 14 36 25 41 25 5 0 30
20 55 44 41 38 46 48 43 77 -2 22 -1 29 5 20 11 -17 23 2 15 24 -4 9 -13 14
-20 11 -8 -3 -14 -2 -14 3 0 16 25 28 57 27 27 -1 30 1 22 17 -12 21 -7 22
-62 -7 -31 -17 -47 -21 -50 -13 -2 7 -4 0 -4 -15 0 -18 5 -28 14 -28 8 0 11
-5 8 -10 -4 -6 -10 -8 -14 -6 -4 3 -17 -5 -28 -17 -44 -49 -85 -73 -116 -68
-5 1 -33 -6 -62 -15 -52 -17 -58 -17 -136 1 -65 15 -89 17 -121 8 -87 -23
-204 43 -253 143 -25 50 -31 78 -39 185 l-9 126 32 77 c18 43 41 91 51 108 10
17 16 36 14 42 -6 15 51 70 63 63 5 -4 31 0 58 8 26 8 69 15 94 15 25 0 62 5
81 11 19 5 60 10 90 10 l55 1 -50 16 c-27 9 -51 20 -53 24 -2 4 -17 8 -33 8
-20 0 -28 4 -23 11 10 17 129 2 178 -23 47 -24 104 -66 159 -117 103 -96 145
-287 97 -439 -23 -74 -25 -105 -8 -100 16 6 26 56 37 196 9 113 15 138 30 114
11 -18 3 -215 -9 -248 -6 -15 -8 -29 -6 -32 8 -8 33 23 28 36 -2 6 1 12 7 12
6 0 11 -7 11 -15 0 -15 12 -20 23 -9 3 3 -3 16 -14 27 -11 12 -17 27 -15 33 2
6 -1 17 -7 24 -9 10 -7 11 11 5 13 -4 22 -2 22 4 0 6 -4 11 -10 11 -5 0 -10
19 -9 43 0 23 3 36 6 30 2 -7 12 -13 20 -13 10 0 13 6 9 16 -3 9 -6 20 -6 25
0 5 -6 9 -13 9 -9 0 -12 11 -9 33 2 22 -2 38 -12 46 -11 10 -13 18 -6 31 7 13
5 32 -6 62 -9 23 -16 60 -15 80 0 32 -4 39 -25 44 -23 6 -28 18 -25 57 1 9 -3
17 -9 17 -6 0 -21 11 -33 24 -25 27 -77 45 -77 27 0 -6 5 -11 10 -11 15 0 12
-26 -5 -40 -13 -10 -15 -9 -15 8 0 17 -8 22 -45 27 -24 4 -50 13 -56 21 -6 8
-18 14 -26 14 -21 0 -113 43 -113 53 0 21 119 31 149 13 7 -4 17 -3 24 2 7 5
27 13 45 17 22 5 32 12 32 26 0 22 -31 57 -47 52 -21 -7 -21 25 -1 47 21 22
22 22 29 4 4 -10 19 -32 33 -47 14 -16 23 -33 20 -39 -5 -7 2 -9 20 -6 14 3
26 2 26 -3 0 -4 16 -11 36 -15 19 -3 41 -15 47 -25 7 -11 23 -19 37 -19 14 0
34 -6 45 -14 27 -18 132 -15 170 6 17 9 46 22 65 29 19 7 51 24 70 37 38 25
127 122 113 122 -5 0 -10 14 -11 30 -1 17 3 30 9 30 7 0 9 9 6 23 l-6 22 17
-23 c18 -23 32 -21 32 5 0 7 -5 12 -11 11 -6 -2 -14 3 -17 11 -2 8 0 11 6 7
12 -7 26 25 14 33 -5 3 -12 35 -16 71 -4 36 -10 88 -13 116 -3 32 -1 54 6 58
11 7 -11 52 -33 67 -5 4 -6 14 -3 24 15 38 130 -44 132 -94 0 -17 25 -28 25
-11 0 7 -9 25 -20 40 -11 16 -18 35 -14 43 6 18 -48 83 -77 92 -11 4 -18 12
-16 19 8 19 -2 29 -77 80 -42 29 -77 46 -88 43 -10 -3 -21 -1 -24 4 -3 5 -21
9 -39 9 -26 0 -33 3 -29 15 4 10 0 15 -14 15 -27 0 -37 -17 -15 -23 10 -3 -18
-5 -62 -5 -44 0 -73 2 -65 6 18 8 23 43 5 36 -21 -9 -25 23 -4 42 16 15 33 16
126 11 125 -6 145 -12 196 -60 22 -19 54 -38 73 -42 19 -3 34 -10 34 -15 0 -6
9 -10 21 -10 26 0 22 28 -6 44 -10 6 -25 17 -33 23 -16 16 -169 87 -214 101
-52 16 -118 20 -178 11z m-101 -138 c11 -7 10 -14 -5 -37 -10 -16 -25 -35 -33
-42 -14 -11 -14 -14 -1 -22 13 -8 11 -13 -9 -32 -15 -14 -22 -17 -19 -8 5 12
-3 16 -34 15 -31 0 -47 -7 -75 -34 -25 -24 -34 -28 -30 -15 3 11 8 30 11 44 3
14 19 33 36 43 18 11 30 26 30 39 0 17 5 20 30 16 20 -3 30 0 30 8 0 13 27 33
45 34 6 0 16 -4 24 -9z m260 -65 c13 -7 19 -16 13 -20 -12 -7 -75 18 -65 27 9
10 25 8 52 -7z m-82 -2 c-3 -3 -12 -4 -19 -1 -8 3 -5 6 6 6 11 1 17 -2 13 -5z
m98 -76 c50 -22 118 -69 148 -102 42 -45 59 -94 31 -88 -18 4 -18 1 1 -34 24
-46 20 -179 -7 -250 -48 -124 -88 -166 -203 -216 -48 -20 -189 -24 -231 -5
-72 31 -145 89 -178 140 -37 57 -71 159 -62 183 3 7 2 22 -2 32 -5 12 -9 3
-12 -28 l-5 -45 -15 33 c-8 17 -18 32 -22 32 -5 0 -8 5 -8 12 0 6 3 8 7 5 6
-7 44 88 41 102 -8 29 40 98 65 93 10 -2 17 3 17 12 0 9 -4 16 -10 16 -5 0 -7
7 -4 15 4 8 11 15 16 15 6 0 8 -7 4 -15 -9 -24 8 -17 39 15 40 42 124 71 205
71 87 0 121 11 60 20 -33 5 -27 6 25 4 39 -2 84 -9 100 -17z m162 -20 c13 -12
23 -25 23 -30 0 -14 -19 -9 -40 12 -38 38 -22 55 17 18z m-2040 -4 c-3 -3 -12
-4 -19 -1 -8 3 -5 6 6 6 11 1 17 -2 13 -5z m-49 -20 c-10 -10 -21 -13 -29 -8
-12 7 0 14 41 23 2 1 -3 -6 -12 -15z m112 -58 c0 -3 -4 -8 -10 -11 -5 -3 -10
-1 -10 4 0 6 5 11 10 11 6 0 10 -2 10 -4z m287 -82 c-3 -3 -12 -4 -19 -1 -8 3
-5 6 6 6 11 1 17 -2 13 -5z m-267 -24 c0 -5 -5 -10 -11 -10 -5 0 -7 5 -4 10 3
6 8 10 11 10 2 0 4 -4 4 -10z m396 -31 c41 -13 62 -24 55 -28 -8 -5 1 -14 26
-25 21 -9 50 -24 65 -32 14 -7 31 -14 37 -14 15 0 31 -13 94 -72 27 -27 53
-48 56 -48 10 0 61 -57 61 -68 0 -6 5 -12 12 -14 15 -5 12 -76 -4 -95 -6 -7
-18 -13 -27 -13 -11 0 -13 3 -4 8 21 13 26 65 9 87 -15 19 -15 18 -16 -22 0
-64 -34 -134 -55 -115 -5 4 -5 1 -1 -6 8 -13 -71 -99 -96 -104 -16 -4 -54 -52
-74 -95 -18 -37 -42 -64 -99 -111 -22 -18 -30 -28 -17 -22 21 10 33 -2 13 -14
-14 -9 -67 -108 -75 -139 -5 -22 -10 -26 -20 -18 -7 6 -16 8 -19 4 -11 -10 -8
-43 3 -43 5 0 7 -7 4 -15 -4 -8 -10 -15 -15 -15 -4 0 -6 7 -3 15 9 21 1 19
-25 -9 -23 -24 -23 -25 -2 -19 26 7 27 -7 3 -47 -19 -31 -32 -30 -32 2 0 10
-2 18 -5 18 -17 0 -74 -36 -98 -62 -26 -28 -32 -30 -74 -24 -40 5 -44 4 -33
-9 12 -15 0 -22 -14 -7 -4 4 -11 7 -14 8 -36 4 -61 19 -66 39 -3 13 -16 36
-29 52 -55 68 -131 275 -126 342 1 14 -4 40 -11 56 -18 44 -22 211 -5 260 15
46 59 141 77 170 45 68 205 205 240 205 6 0 19 7 28 15 51 46 170 57 276 24z
m889 -199 c3 -5 1 -10 -4 -10 -6 0 -11 5 -11 10 0 6 2 10 4 10 3 0 8 -4 11
-10z m-155 -10 c0 -5 -4 -10 -9 -10 -6 0 -13 5 -16 10 -3 6 1 10 9 10 9 0 16
-4 16 -10z m-1467 -50 c-3 -11 -12 -20 -20 -20 -8 0 -12 3 -10 8 2 4 7 15 10
25 9 24 27 12 20 -13z m1212 -29 c3 -5 1 -12 -4 -15 -5 -3 -11 1 -15 9 -6 16
9 21 19 6z m-1344 -62 l-10 -24 0 26 c-1 14 2 29 6 33 12 12 14 -9 4 -35z
m109 -9 c0 -18 -6 -33 -15 -37 -24 -9 -30 5 -12 25 10 10 17 24 17 30 0 7 2
12 5 12 3 0 5 -14 5 -30z m-50 -4 c0 -11 -19 -15 -25 -6 -3 5 1 10 9 10 9 0
16 -2 16 -4z m1583 -15 c10 -12 7 -13 -18 -7 -42 10 -56 27 -21 24 15 -1 33
-9 39 -17z m-333 -46 c0 -8 -7 -15 -15 -15 -16 0 -20 12 -8 23 11 12 23 8 23
-8z m-1265 -35 c0 -7 -6 -15 -12 -17 -8 -3 -13 4 -13 17 0 13 5 20 13 18 6 -3
12 -11 12 -18z m65 -27 c0 -3 -13 -18 -29 -32 -28 -26 -29 -27 -14 -63 8 -21
20 -38 25 -38 6 0 6 -6 -1 -14 -10 -11 -8 -16 8 -21 12 -4 18 -12 14 -21 -3
-9 0 -14 8 -12 9 2 14 -6 14 -22 0 -20 -5 -25 -22 -23 -17 2 -23 -2 -23 -17 0
-11 5 -20 10 -20 6 0 10 -7 10 -15 0 -9 7 -15 17 -13 22 4 44 -49 25 -61 -7
-4 -11 -19 -10 -34 2 -20 5 -23 15 -15 16 13 17 -4 1 -20 -13 -13 -38 2 -38
23 0 7 -7 16 -16 19 -13 5 -15 16 -12 50 4 35 2 45 -14 55 -13 8 -17 18 -13
32 5 13 1 25 -10 33 -13 9 -17 34 -21 112 -4 97 -4 101 18 112 26 12 58 15 58
5z m1435 -34 c18 -17 -10 -28 -80 -31 -55 -2 -70 0 -72 12 -2 8 7 20 19 26 25
12 117 7 133 -7z m-1430 -39 c3 -5 1 -10 -4 -10 -6 0 -11 5 -11 10 0 6 2 10 4
10 3 0 8 -4 11 -10z m1195 -10 c0 -5 -5 -10 -11 -10 -5 0 -7 5 -4 10 3 6 8 10
11 10 2 0 4 -4 4 -10z m25 -30 c3 -5 -12 -18 -35 -30 -22 -11 -40 -27 -40 -35
0 -20 -21 -30 -30 -15 -9 15 -33 3 -27 -14 3 -7 -5 -13 -18 -14 -13 -1 -26 5
-29 13 -3 8 -12 12 -21 9 -8 -3 -15 -2 -15 4 0 17 30 22 51 9 17 -10 23 -9 38
9 20 25 91 73 108 73 6 1 14 -3 18 -9z m105 -27 c-14 -3 -34 -13 -45 -22 -11
-10 -36 -24 -55 -31 -19 -7 -41 -18 -47 -23 -20 -15 -16 7 5 26 23 21 111 55
142 55 l25 -1 -25 -4z m-310 -83 c0 -12 -28 -25 -36 -17 -9 9 6 27 22 27 8 0
14 -5 14 -10z m774 -32 c-3 -5 -14 -2 -25 8 -10 9 -16 21 -13 26 3 5 14 2 25
-8 10 -9 16 -21 13 -26z m-714 3 c0 -5 -10 -22 -23 -38 -13 -15 -30 -50 -37
-78 -7 -27 -24 -62 -37 -77 -14 -14 -24 -29 -23 -32 1 -4 -1 -33 -5 -66 -5
-41 -3 -65 5 -75 8 -10 9 -28 1 -71 -6 -32 -11 -59 -11 -61 0 -2 7 -3 15 -3 8
0 15 -4 15 -10 0 -5 -7 -7 -15 -4 -10 4 -15 0 -15 -11 0 -12 6 -16 19 -12 12
3 22 -1 25 -9 6 -17 -1 -17 -43 -3 -25 9 -31 17 -31 39 0 50 -7 58 -56 54 -33
-2 -44 1 -44 12 0 15 0 15 50 18 27 1 36 6 38 22 2 16 -5 23 -30 30 -23 7 -34
17 -36 32 -2 12 1 22 7 22 6 0 11 7 11 15 0 8 5 15 10 15 6 0 10 6 10 13 0 6
5 19 10 27 9 13 11 13 20 0 7 -11 8 -4 5 23 -3 21 -1 36 3 33 10 -6 55 50 63
80 5 17 2 23 -13 27 -12 4 -17 10 -13 17 5 8 10 9 18 1 11 -11 37 17 50 52 4
10 11 16 16 12 5 -3 12 -1 16 5 8 13 25 13 25 1z m-120 -11 c0 -12 -11 -18
-43 -24 -23 -4 -25 -2 -16 13 12 18 59 27 59 11z m890 -20 c0 -5 -11 -10 -25
-10 -14 0 -25 5 -25 10 0 6 11 10 25 10 14 0 25 -4 25 -10z m10 -141 c0 -12
-5 -16 -15 -13 -8 4 -15 17 -15 31 0 22 2 24 15 13 8 -7 15 -21 15 -31z m-930
0 c0 -5 -4 -9 -10 -9 -5 0 -10 7 -10 16 0 8 5 12 10 9 6 -3 10 -10 10 -16z
m1260 -60 c0 -5 -16 -9 -35 -9 -41 0 -47 17 -7 22 31 4 42 1 42 -13z m200 -9
c0 -5 -2 -10 -4 -10 -3 0 -8 5 -11 10 -3 6 -1 10 4 10 6 0 11 -4 11 -10z
m-308 -67 c-8 -45 -49 -23 -57 30 l-6 37 34 -23 c25 -16 32 -27 29 -44z m226
-6 c17 -13 15 -25 -5 -30 -10 -3 0 -5 21 -6 24 -1 57 -12 88 -31 26 -16 53
-30 58 -30 39 0 200 -194 200 -242 0 -9 4 -18 10 -20 15 -5 43 -156 35 -194
-7 -40 -26 -36 -23 4 4 57 -2 92 -15 92 -35 0 -49 -103 -23 -165 17 -41 36
-46 36 -11 0 14 5 28 12 32 16 10 3 -88 -16 -124 -9 -15 -18 -35 -22 -44 -3
-10 -10 -18 -15 -18 -5 0 -9 -11 -9 -25 0 -13 -6 -29 -12 -34 -38 -30 -189
-140 -223 -162 -36 -23 -83 -40 -185 -68 l-35 -9 36 -1 c42 -1 138 25 159 44
8 7 29 17 45 21 l30 7 -22 -22 c-12 -11 -29 -21 -37 -21 -8 0 -17 -4 -20 -9
-9 -14 -201 -52 -223 -44 -7 3 -27 0 -45 -6 -109 -35 -252 -14 -403 60 -53 26
-98 64 -93 79 2 7 18 0 42 -19 21 -17 42 -31 46 -31 4 0 17 -9 29 -19 13 -11
47 -25 77 -32 30 -7 54 -15 54 -19 0 -12 171 -23 182 -12 6 6 -21 12 -79 17
-95 8 -194 40 -252 83 -47 35 -85 121 -77 174 9 56 28 88 80 136 42 39 44 42
21 42 -14 0 -25 -4 -25 -9 0 -5 -10 -13 -22 -17 -13 -4 -28 -14 -34 -22 -6 -8
-16 -12 -23 -8 -18 11 1 29 67 67 31 17 73 46 93 63 20 17 46 38 57 46 55 42
173 217 187 279 8 38 23 40 27 4 l3 -28 16 30 c9 17 20 41 24 55 l7 25 -26
-24 c-14 -14 -29 -22 -32 -18 -10 10 5 41 51 102 25 33 45 65 45 71 0 43 117
73 158 41z m-1481 -99 c-3 -8 -6 -5 -6 6 -1 11 2 17 5 13 3 -3 4 -12 1 -19z
m-620 -54 c-3 -3 -12 -4 -19 -1 -8 3 -5 6 6 6 11 1 17 -2 13 -5z m769 -121
c-7 -7 -26 7 -26 19 0 6 6 6 15 -2 9 -7 13 -15 11 -17z m24 -44 c0 -6 -4 -7
-10 -4 -5 3 -10 11 -10 16 0 6 5 7 10 4 6 -3 10 -11 10 -16z m64 -51 c-3 -5
-12 -4 -20 3 -19 16 -18 18 6 12 11 -3 17 -9 14 -15z m666 -18 c0 -5 -4 -10
-10 -10 -5 0 -10 5 -10 10 0 6 5 10 10 10 6 0 10 -4 10 -10z m-580 -59 c19
-16 32 -32 28 -36 -8 -8 -78 43 -78 56 0 16 15 10 50 -20z m143 -18 c72 -19
91 -35 30 -26 -81 12 -107 19 -111 31 -5 16 0 15 81 -5z m232 8 c-5 -9 -73
-33 -128 -45 -15 -4 -25 -11 -22 -16 4 -6 -7 -10 -24 -10 -41 0 -49 18 -9 22
24 2 32 7 30 20 -2 11 3 15 15 12 10 -3 38 2 63 10 53 17 83 20 75 7z m315
-17 c0 -16 -23 -44 -35 -44 -19 0 -19 15 1 34 15 16 34 21 34 10z m-590 -34
c0 -5 -4 -10 -10 -10 -5 0 -10 5 -10 10 0 6 5 10 10 10 6 0 10 -4 10 -10z
m220 -10 c0 -5 -4 -10 -10 -10 -5 0 -10 5 -10 10 0 6 5 10 10 10 6 0 10 -4 10
-10z m-50 -10 c0 -5 -7 -7 -15 -4 -8 4 -15 8 -15 10 0 2 7 4 15 4 8 0 15 -4
15 -10z m-804 -102 c15 -24 11 -51 -13 -76 -21 -23 -22 -27 -8 -42 14 -16 12
-49 -4 -51 -3 0 -16 -2 -28 -5 -25 -4 -33 21 -10 29 6 2 8 8 4 13 -5 5 -17 -1
-27 -13 -21 -26 -40 -30 -40 -9 0 25 12 46 26 46 8 0 14 9 14 20 0 23 -15 27
-24 5 -7 -19 -22 -19 -30 0 -4 10 3 19 18 25 13 5 27 13 30 19 3 5 20 12 36
16 17 4 30 13 30 21 0 17 16 18 26 2z m254 -13 c0 -8 -4 -15 -10 -15 -5 0 -10
7 -10 15 0 8 5 15 10 15 6 0 10 -7 10 -15z m585 -10 c-16 -7 -34 -10 -40 -7
-5 3 1 9 15 13 42 12 57 8 25 -6z m81 8 c-11 -11 -48 -14 -41 -3 3 5 16 10 27
10 12 0 18 -3 14 -7z m-931 -216 c1 -21 -3 -25 -20 -22 -11 2 -24 4 -28 4 -4
1 0 12 10 26 22 30 38 27 38 -8z m123 2 c-2 -6 -7 -10 -11 -10 -4 1 -17 1 -29
1 -19 0 -20 2 -8 10 20 13 53 13 48 -1z m-144 -50 c25 -20 37 -69 16 -69 -5 0
-10 9 -10 20 0 11 -4 20 -10 20 -5 0 -10 7 -10 15 0 8 -7 15 -15 15 -8 0 -15
5 -15 10 0 16 15 12 44 -11z m1980 -30 c-36 -38 -101 -75 -112 -65 -2 3 17 20
44 38 26 18 59 43 73 55 41 34 38 16 -5 -28z m-1818 24 c3 -10 10 -28 16 -40
12 -25 6 -39 -22 -46 -11 -3 -18 -1 -14 4 3 5 2 9 -3 9 -4 1 -19 10 -32 21
l-25 20 30 24 c35 29 43 30 50 8z m859 -33 c3 -5 1 -10 -4 -10 -6 0 -11 5 -11
10 0 6 2 10 4 10 3 0 8 -4 11 -10z m-690 -10 c-3 -5 -11 -10 -16 -10 -6 0 -7
5 -4 10 3 6 11 10 16 10 6 0 7 -4 4 -10z m73 -32 c40 -3 42 -14 2 -20 -19 -3
-31 0 -35 10 -3 8 -12 11 -20 8 -8 -3 -15 -1 -15 3 0 13 24 20 30 10 3 -5 20
-9 38 -11z m-138 3 c0 -11 -61 -21 -75 -13 -5 3 1 9 15 13 37 10 60 10 60 0z
m-83 -27 c-3 -3 -12 -4 -19 -1 -8 3 -5 6 6 6 11 1 17 -2 13 -5z m243 -14 c0
-5 -4 -10 -10 -10 -5 0 -10 5 -10 10 0 6 5 10 10 10 6 0 10 -4 10 -10z m1540
-24 c0 -3 -4 -8 -10 -11 -5 -3 -10 -1 -10 4 0 6 5 11 10 11 6 0 10 -2 10 -4z
m-805 -56 c-8 -13 -35 -13 -55 0 -11 7 -5 10 23 10 23 0 36 -4 32 -10z m675
-20 c0 -5 -16 -8 -35 -7 -40 1 -45 10 -12 24 22 10 47 1 47 -17z m-635 10 c3
-5 15 -10 26 -10 10 0 19 -4 19 -10 0 -16 -20 -12 -47 10 -14 11 -21 20 -15
20 6 0 14 -4 17 -10z m485 -14 c0 -3 -4 -8 -10 -11 -5 -3 -10 -1 -10 4 0 6 5
11 10 11 6 0 10 -2 10 -4z m-40 -21 c7 -8 20 -15 29 -15 14 -1 14 -2 -2 -11
-13 -8 -21 -6 -33 5 -20 21 -41 21 -24 1 7 -8 11 -15 9 -16 -2 0 -35 -3 -73
-5 -58 -4 -68 -3 -63 10 4 9 -1 16 -14 19 -16 4 -15 5 3 4 13 0 30 3 38 6 15
6 56 13 96 16 12 0 27 -6 34 -14z m100 5 c0 -5 -2 -10 -4 -10 -3 0 -8 5 -11
10 -3 6 -1 10 4 10 6 0 11 -4 11 -10z m-270 -100 c0 -16 -57 -16 -74 1 -6 5 6
9 32 9 23 0 42 -4 42 -10z"/>
<path d="M5530 8280 c0 -5 7 -10 16 -10 8 0 12 5 9 10 -3 6 -10 10 -16 10 -5
0 -9 -4 -9 -10z"/>
<path d="M5735 8150 c10 -11 20 -20 23 -20 3 0 -3 9 -13 20 -10 11 -20 20 -23
20 -3 0 3 -9 13 -20z"/>
<path d="M5852 8039 c2 -7 10 -15 17 -17 8 -3 12 1 9 9 -2 7 -10 15 -17 17 -8
3 -12 -1 -9 -9z"/>
<path d="M4943 7644 c3 -16 9 -49 12 -74 16 -108 60 -221 127 -325 29 -46 85
-99 75 -70 -4 9 -7 21 -7 25 0 5 -19 31 -43 58 -32 36 -53 75 -79 148 -44 121
-55 157 -63 211 -4 24 -11 46 -17 49 -6 4 -8 -4 -5 -22z"/>
<path d="M4729 7623 c-13 -16 -12 -17 4 -4 16 13 21 21 13 21 -2 0 -10 -8 -17
-17z"/>
<path d="M5681 7258 c-12 -34 -6 -52 9 -28 10 15 14 60 6 60 -2 0 -9 -14 -15
-32z"/>
<path d="M6962 7203 c-16 -16 -33 -39 -37 -53 -4 -14 -13 -28 -19 -32 -6 -4
-7 -10 -3 -15 5 -4 32 18 61 50 36 39 61 57 77 57 19 0 21 2 9 10 -26 17 -56
11 -88 -17z"/>
<path d="M7217 8612 c-18 -20 -24 -43 -6 -25 11 11 62 5 54 -7 -2 -4 7 -13 20
-20 23 -12 27 -21 29 -67 1 -10 8 -25 17 -33 45 -42 82 -164 79 -258 0 -30 4
-60 10 -67 8 -9 8 -19 1 -32 -11 -20 -25 -70 -26 -92 0 -8 -6 -16 -13 -19 -6
-2 -12 -10 -12 -17 0 -18 -21 -56 -45 -81 -11 -12 -33 -38 -48 -58 -15 -20
-34 -36 -42 -36 -15 0 -20 -12 -9 -23 23 -23 158 116 179 183 4 14 11 30 16
35 14 19 30 140 25 196 -11 124 -20 167 -47 225 -16 34 -29 66 -29 72 0 5 -13
24 -30 42 -16 18 -30 34 -30 36 0 8 -60 64 -69 64 -4 0 -15 -8 -24 -18z"/>
<path d="M5440 8510 c-12 -8 -9 -10 12 -10 15 0 30 5 33 10 8 13 -25 13 -45 0z"/>
<path d="M5230 8476 c7 -7 14 -6 21 1 9 9 7 12 -9 10 -14 -1 -18 -5 -12 -11z"/>
<path d="M6229 8416 c-15 -18 -27 -21 -98 -21 -68 0 -78 -2 -64 -12 37 -28
166 -4 180 33 9 24 0 24 -18 0z"/>
<path d="M7191 8323 c0 -4 4 -17 9 -28 8 -19 9 -19 9 2 1 12 -3 25 -9 28 -5 3
-10 3 -9 -2z"/>
<path d="M7247 8314 c-4 -4 -3 -12 2 -18 4 -6 11 -24 14 -41 6 -34 -9 -180
-22 -210 -9 -20 -28 -69 -53 -136 -17 -46 -45 -81 -85 -104 -18 -11 -33 -23
-33 -27 0 -4 -6 -8 -14 -8 -7 0 -19 -7 -26 -15 -7 -8 -28 -18 -49 -21 -74 -14
-163 -64 -113 -64 15 0 19 -5 15 -20 -4 -16 1 -23 26 -33 17 -6 31 -15 31 -19
0 -4 11 -8 24 -8 13 0 26 -4 28 -9 2 -5 12 -11 23 -13 27 -4 48 -25 39 -39 -4
-8 -3 -9 4 -5 6 4 30 -3 53 -14 22 -12 53 -20 69 -18 15 1 35 -4 44 -11 23
-20 31 -7 12 21 -9 12 -16 31 -16 41 0 9 -7 20 -15 23 -31 12 -42 52 -30 102
11 44 11 47 -14 69 -14 12 -20 23 -13 23 7 0 10 5 7 10 -4 6 -12 8 -18 4 -7
-3 -4 1 6 9 9 8 17 24 17 36 0 11 9 30 19 40 34 34 78 144 72 179 -1 6 3 12 9
12 5 0 10 15 10 33 0 18 4 37 9 43 16 15 25 164 10 164 -6 0 -17 7 -23 16 -6
8 -15 12 -19 8z m-118 -578 c-2 -2 -24 -7 -49 -11 -40 -7 -43 -6 -32 8 15 18
62 27 76 15 5 -4 8 -9 5 -12z"/>
<path d="M6010 8300 c0 -5 5 -10 10 -10 6 0 10 5 10 10 0 6 -4 10 -10 10 -5 0
-10 -4 -10 -10z"/>
<path d="M7200 8227 c0 -20 4 -38 9 -42 11 -6 9 60 -2 71 -4 4 -7 -9 -7 -29z"/>
<path d="M5870 8210 c0 -5 5 -10 10 -10 6 0 10 5 10 10 0 6 -4 10 -10 10 -5 0
-10 -4 -10 -10z"/>
<path d="M5896 8193 c-11 -11 -6 -23 9 -23 8 0 15 4 15 9 0 13 -16 22 -24 14z"/>
<path d="M7203 8150 c-1 -11 2 -20 8 -20 5 0 9 9 9 20 0 11 -4 20 -8 20 -4 0
-8 -9 -9 -20z"/>
<path d="M4576 8088 c-49 -119 -41 -426 16 -643 14 -56 85 -255 101 -285 8
-14 18 -34 24 -45 6 -11 19 -45 29 -75 10 -30 24 -61 31 -68 7 -7 13 -26 13
-42 0 -16 4 -31 9 -35 5 -3 15 -31 21 -63 11 -58 30 -130 38 -146 3 -5 7 -31
9 -59 2 -27 9 -61 15 -75 17 -44 29 -252 14 -252 -4 0 -6 -10 -3 -22 4 -15 -2
-33 -18 -54 -13 -17 -24 -40 -23 -50 0 -26 -29 -124 -73 -241 -5 -15 -14 -21
-24 -17 -19 8 -20 -10 0 -26 8 -7 15 -20 15 -29 0 -9 3 -12 8 -6 4 6 19 18 35
28 25 16 38 47 19 47 -5 0 -9 7 -9 15 0 9 6 14 13 11 14 -5 29 28 20 43 -3 5
1 15 10 22 10 8 13 21 9 36 -3 14 2 42 13 67 14 30 17 48 10 60 -5 9 -6 25 -2
34 4 9 6 20 6 25 -1 4 7 7 17 7 17 0 18 4 10 41 -5 22 -6 47 -1 55 19 35 -75
515 -107 547 -6 6 -11 23 -11 38 0 15 -4 31 -10 34 -5 3 -10 16 -10 28 0 13
-7 32 -15 44 -8 12 -17 35 -19 51 -2 16 -19 63 -39 103 -20 41 -43 95 -53 122
-9 26 -21 47 -27 47 -5 0 -7 13 -4 28 3 16 0 40 -7 53 -7 14 -16 45 -20 70
-26 172 -35 260 -31 315 3 37 0 57 -10 68 -13 12 -13 16 0 26 10 9 15 32 15
74 0 35 7 73 15 90 18 34 18 36 4 36 -5 0 -16 -15 -23 -32z"/>
<path d="M7150 7995 c0 -8 2 -15 4 -15 2 0 6 7 10 15 3 8 1 15 -4 15 -6 0 -10
-7 -10 -15z"/>
<path d="M7200 7771 c0 -5 7 -11 14 -14 10 -4 13 -1 9 9 -6 15 -23 19 -23 5z"/>
<path d="M7265 7751 c-16 -10 -39 -28 -49 -40 -17 -18 -18 -26 -8 -59 6 -20
14 -47 17 -60 7 -25 45 -51 45 -30 -1 7 -7 24 -15 38 -25 44 -19 95 16 135 36
40 35 42 -6 16z"/>
<path d="M6600 7735 c0 -17 2 -18 24 -9 23 9 20 24 -4 24 -11 0 -20 -7 -20
-15z"/>
<path d="M6855 7601 c-3 -6 2 -14 12 -19 14 -9 15 -13 4 -26 -12 -14 -11 -16
7 -16 11 0 27 -3 36 -6 12 -5 16 0 16 17 0 13 -4 29 -8 35 -10 15 -60 26 -67
15z"/>
<path d="M7260 7460 c0 -5 6 -14 13 -20 16 -15 118 -80 123 -80 6 0 21 -13 71
-57 20 -18 42 -33 49 -33 8 0 11 -6 8 -15 -4 -9 0 -15 10 -15 20 0 85 -70 86
-92 0 -10 9 -23 20 -30 11 -7 20 -18 20 -25 0 -7 9 -18 20 -25 11 -7 20 -23
20 -36 0 -12 4 -31 10 -42 6 -11 14 -29 20 -40 6 -11 10 -26 10 -34 0 -7 9
-42 21 -77 14 -44 19 -79 15 -110 -2 -26 1 -82 9 -125 14 -83 8 -146 -20 -210
-8 -16 -12 -40 -8 -52 3 -15 0 -24 -11 -28 -9 -3 -16 -11 -16 -16 0 -6 -14
-30 -30 -55 -17 -24 -39 -61 -49 -81 -11 -20 -34 -53 -52 -72 -27 -29 -34 -32
-37 -18 -2 10 6 31 17 47 25 35 26 41 6 41 -9 0 -18 7 -22 16 -5 13 -8 12 -25
-5 -11 -13 -32 -21 -51 -21 -30 -1 -31 -2 -14 -15 27 -20 14 -49 -38 -85 -24
-16 -48 -30 -54 -30 -5 0 -14 -6 -18 -13 -4 -7 -35 -21 -68 -31 -33 -10 -82
-25 -110 -34 -38 -12 -96 -16 -245 -16 -217 -1 -237 1 -262 22 -10 8 -27 12
-39 9 -22 -6 -123 13 -174 32 -16 6 -37 14 -45 17 -8 4 -45 8 -83 10 -37 2
-82 10 -100 18 -17 8 -74 17 -126 19 -51 3 -98 10 -104 16 -15 15 -54 14 -59
-1 -3 -9 -36 -15 -94 -19 -49 -4 -116 -10 -149 -13 -33 -4 -72 -7 -87 -7 -18
1 -29 -5 -33 -18 -4 -12 -12 -18 -21 -14 -8 3 -21 0 -29 -7 -13 -11 -18 -10
-30 6 -8 10 -13 24 -10 31 6 17 -14 29 -58 36 -27 4 -40 2 -43 -8 -3 -8 -11
-12 -17 -10 -7 2 -24 6 -39 9 -16 4 -28 13 -28 22 0 12 7 14 35 8 42 -8 49 12
8 22 -16 4 -43 15 -61 25 -32 17 -33 18 -13 29 29 15 28 41 -1 36 -15 -2 -22
-9 -20 -20 3 -19 -14 -22 -21 -3 -5 17 -33 -6 -40 -34 -5 -18 -2 -19 24 -14
36 8 39 -11 4 -27 -27 -12 -33 -33 -12 -42 8 -3 7 -8 -6 -16 -16 -10 -15 -14
12 -47 16 -20 27 -42 24 -49 -3 -9 2 -14 12 -14 12 0 16 6 12 20 -3 13 1 21
14 25 10 3 21 15 24 26 6 19 35 27 35 9 0 -5 12 -10 26 -10 19 0 25 -4 21 -15
-4 -8 -2 -17 3 -20 22 -14 9 -35 -20 -35 -19 0 -30 -5 -30 -14 0 -14 -20 -24
-75 -36 l-30 -7 25 -11 c24 -11 24 -12 -10 -9 -34 2 -35 1 -34 -35 1 -35 -1
-37 -35 -43 -59 -10 -67 -19 -48 -49 9 -14 17 -30 17 -35 0 -12 -39 -26 -62
-22 -12 1 -18 -4 -18 -18 0 -21 0 -21 -22 1 -23 23 -27 72 -7 93 5 5 9 18 9
30 0 24 43 48 59 32 5 -5 18 -6 28 -3 16 7 17 9 2 19 -13 10 -14 16 -5 30 9
14 7 21 -6 31 -26 19 -22 59 7 86 25 24 25 24 5 32 -11 4 -20 16 -20 26 0 10
-5 23 -11 29 -7 7 -8 17 -1 29 11 21 6 105 -9 144 -5 14 -10 48 -11 75 -2 43
0 50 15 47 28 -5 20 8 -12 19 -32 11 -50 39 -26 39 8 0 15 7 15 15 0 8 -4 15
-9 15 -16 0 -41 67 -43 115 -1 30 -6 49 -15 52 -9 4 -13 17 -12 37 2 17 0 37
-4 43 -4 6 -3 15 3 18 8 5 7 11 -1 22 -10 11 -10 16 0 22 14 9 5 61 -11 61
-12 0 -37 30 -38 45 0 6 11 22 25 37 23 25 24 28 8 36 -10 5 -28 8 -41 7 -31
-2 -37 8 -56 94 -19 82 -31 111 -47 111 -18 0 10 -106 74 -285 14 -38 28 -99
32 -135 3 -36 15 -99 26 -142 10 -42 19 -95 19 -118 0 -41 14 -79 33 -92 7 -4
6 -12 -2 -22 -10 -12 -11 -19 -2 -30 9 -10 8 -15 -4 -20 -22 -8 -19 -68 5
-111 18 -32 19 -38 5 -51 -8 -9 -15 -23 -15 -32 0 -15 1 -15 17 0 15 16 17 16
28 -5 13 -26 -6 -53 -30 -43 -18 7 -35 -23 -35 -63 0 -16 -4 -33 -10 -36 -14
-9 -12 -27 5 -49 12 -15 17 -17 29 -7 8 7 19 10 24 7 13 -8 -2 -81 -16 -78
-17 3 -27 -27 -13 -41 19 -19 13 -22 -39 -21 -42 1 -50 -2 -50 -18 0 -17 -2
-17 -37 -1 -21 10 -47 25 -58 34 -11 9 -30 20 -42 24 -13 3 -23 11 -23 16 0
17 -20 9 -42 -16 -12 -14 -30 -25 -40 -25 -21 0 -38 -52 -19 -58 19 -6 51 -44
51 -60 0 -11 -10 -13 -45 -10 -34 4 -45 2 -45 -8 0 -17 -47 -19 -52 -2 -3 7
-12 9 -22 5 -9 -4 -15 -11 -12 -16 3 -5 -6 -8 -20 -8 -14 0 -34 -10 -45 -22
-11 -11 -23 -21 -27 -21 -13 0 -92 -78 -92 -90 0 -7 -14 -39 -30 -72 -17 -32
-30 -67 -30 -78 0 -11 -7 -20 -15 -20 -8 0 -15 -4 -15 -9 0 -5 -3 -18 -6 -28
-5 -17 -5 -17 9 0 17 21 27 22 27 2 0 -8 7 -15 15 -15 18 0 19 12 4 27 -16 16
0 62 28 80 14 9 29 27 34 40 5 13 13 22 18 18 5 -3 12 -1 16 4 3 6 12 8 19 5
13 -5 31 12 31 30 0 5 10 12 23 17 13 5 22 5 22 -1 0 -6 -4 -10 -10 -10 -5 0
-10 -4 -10 -10 0 -14 28 -12 33 3 3 9 10 7 25 -7 12 -10 19 -22 17 -26 -3 -4
2 -10 10 -14 8 -3 15 -12 15 -21 0 -9 9 -15 25 -15 14 0 25 5 25 11 0 6 -7 9
-15 5 -10 -3 -15 1 -15 14 0 10 9 22 21 25 15 5 19 13 16 27 -8 30 2 48 28 48
34 0 55 10 55 26 0 21 13 17 55 -16 44 -35 55 -37 48 -10 -6 24 5 25 35 4 22
-15 22 -17 5 -29 -17 -13 -17 -15 7 -42 14 -15 28 -29 33 -31 4 -2 7 -12 7
-23 0 -11 14 -28 33 -39 17 -11 28 -20 22 -20 -5 -1 1 -7 15 -14 14 -8 29 -12
33 -9 5 3 13 -1 18 -8 13 -22 30 2 36 52 4 24 13 49 21 55 8 6 12 16 8 23 -4
6 -4 11 1 10 4 -1 11 0 16 1 4 1 24 2 45 2 20 0 44 6 52 13 8 7 32 20 52 28
20 9 44 27 53 41 10 14 23 26 29 26 14 0 66 52 66 66 0 5 16 20 35 33 19 13
35 28 35 34 0 15 41 49 91 76 24 13 51 30 61 38 36 32 138 46 320 45 178 0
195 -2 258 -29 248 -106 518 -135 805 -87 98 16 120 23 270 92 240 109 425
317 510 572 27 78 27 295 1 405 -25 107 -75 265 -85 265 -4 0 -17 19 -27 42
-23 50 -216 247 -266 271 -19 9 -47 28 -62 42 -40 37 -96 57 -96 35z m-2312
-551 c-2 -6 -8 -10 -13 -10 -5 0 -11 4 -13 10 -2 6 4 11 13 11 9 0 15 -5 13
-11z m132 -690 c0 -35 -16 -46 -29 -21 -8 15 -9 46 -1 82 3 16 30 -39 30 -61z
m220 -119 c0 -5 -4 -10 -10 -10 -5 0 -10 5 -10 10 0 6 5 10 10 10 6 0 10 -4
10 -10z m160 -80 c0 -5 -7 -10 -15 -10 -8 0 -15 5 -15 10 0 6 7 10 15 10 8 0
15 -4 15 -10z m-434 -42 c-1 -22 -7 -34 -19 -36 -19 -4 -23 13 -6 23 6 4 8 13
5 20 -2 7 -2 16 1 19 14 14 21 4 19 -26z m409 22 c4 -6 10 -8 15 -5 4 3 19 1
32 -4 21 -7 18 -9 -21 -16 -42 -7 -60 1 -61 28 0 11 28 9 35 -3z m637 -41 c2
-7 12 -7 30 0 28 10 68 4 68 -10 0 -5 11 -9 25 -9 14 0 37 -7 51 -16 23 -16
26 -15 44 1 18 17 25 14 21 -8 -1 -5 3 -6 8 -3 5 4 12 2 16 -4 4 -6 -6 -10
-25 -10 -18 0 -33 -6 -36 -15 -7 -18 -89 -21 -99 -5 -4 6 -16 8 -28 4 -12 -4
-32 -7 -44 -6 -12 1 -25 -3 -28 -8 -3 -6 -18 -10 -33 -9 -27 0 -27 0 -4 10 28
11 19 32 -10 23 -16 -5 -20 -3 -15 10 3 8 1 19 -6 23 -8 5 -3 9 13 13 14 4 24
12 23 18 -4 15 24 16 29 1z m-285 -42 c-29 -9 -43 -5 -33 11 3 5 18 7 33 4
l28 -5 -28 -10z m-167 -31 c0 -11 -19 -15 -25 -6 -3 5 1 10 9 10 9 0 16 -2 16
-4z m1214 -70 c-5 -14 27 -13 111 2 55 11 105 -1 105 -24 0 -8 -9 -14 -21 -14
-11 0 -29 -5 -40 -10 -10 -6 -76 -13 -145 -15 -125 -4 -125 -4 -122 18 2 17 9
22 31 20 24 -2 29 2 26 24 -1 10 33 21 48 16 6 -3 10 -10 7 -17z m-1999 -76
c18 -35 6 -40 -29 -12 -17 13 -20 20 -12 29 17 18 24 15 41 -17z m165 -50 c0
-5 -2 -10 -4 -10 -3 0 -8 5 -11 10 -3 6 -1 10 4 10 6 0 11 -4 11 -10z m-100
-20 c13 -8 13 -10 -2 -10 -9 0 -20 5 -23 10 -8 13 5 13 25 0z m72 -44 c14 -8
45 -17 69 -21 25 -4 51 -17 64 -31 22 -23 52 -34 40 -14 -10 16 20 12 54 -7
36 -21 38 -28 12 -45 -10 -6 -17 -18 -14 -25 3 -7 -2 -13 -12 -13 -12 0 -15 6
-10 23 4 16 4 18 -3 8 -13 -19 -54 -7 -88 24 -15 14 -31 25 -35 25 -16 0 -9
-19 11 -30 11 -6 20 -15 20 -21 0 -6 -13 -2 -30 8 -16 9 -30 21 -30 25 0 4
-10 7 -21 5 -12 -1 -24 4 -27 12 -3 8 0 11 7 7 6 -4 11 -2 11 3 0 6 -9 11 -20
11 -11 0 -20 5 -20 11 0 6 -7 17 -15 26 -14 14 -12 33 3 33 4 0 19 -6 34 -14z
m333 -16 c3 -6 -1 -13 -10 -16 -19 -8 -30 0 -20 15 8 14 22 14 30 1z m-510
-40 c-3 -5 -10 -10 -16 -10 -5 0 -9 5 -9 10 0 6 7 10 16 10 8 0 12 -4 9 -10z
m-178 -20 c5 -26 -13 -43 -36 -35 -20 6 -28 34 -14 49 12 12 48 2 50 -14z
m-122 -10 c3 -5 1 -10 -4 -10 -6 0 -11 5 -11 10 0 6 2 10 4 10 3 0 8 -4 11
-10z m495 -52 c0 -6 -6 -5 -15 2 -8 7 -15 14 -15 16 0 2 7 1 15 -2 8 -4 15
-11 15 -16z m-23 -74 c-3 -3 -12 -4 -19 -1 -8 3 -5 6 6 6 11 1 17 -2 13 -5z"/>
<path d="M6722 7428 c3 -7 13 -15 22 -16 12 -3 17 1 14 10 -3 7 -13 15 -22 16
-12 3 -17 -1 -14 -10z"/>
<path d="M6710 7385 c0 -16 5 -37 10 -45 7 -12 10 -8 10 15 0 17 -5 37 -10 45
-7 12 -10 8 -10 -15z"/>
<path d="M6736 7251 c-4 -7 -5 -15 -2 -18 9 -9 19 4 14 18 -4 11 -6 11 -12 0z"/>
<path d="M6715 7199 c-4 -6 -5 -13 -2 -16 7 -7 27 6 27 18 0 12 -17 12 -25 -2z"/>
<path d="M6746 7151 c-12 -19 -19 -101 -9 -101 6 0 13 24 16 53 5 54 3 65 -7
48z"/>
<path d="M7806 7030 c3 -14 10 -29 15 -34 14 -16 10 6 -7 34 l-15 25 7 -25z"/>
<path d="M6711 6995 c1 -48 1 -49 9 -15 5 19 4 41 0 50 -6 10 -9 -1 -9 -35z"/>
<path d="M7487 7010 c-5 -18 18 -49 29 -38 5 5 -13 58 -20 58 -2 0 -6 -9 -9
-20z"/>
<path d="M6637 6969 c7 -7 15 -10 18 -7 3 3 -2 9 -12 12 -14 6 -15 5 -6 -5z"/>
<path d="M7505 6940 c4 -6 11 -8 16 -5 14 9 11 15 -7 15 -8 0 -12 -5 -9 -10z"/>
<path d="M7530 6906 c0 -11 11 -52 27 -96 4 -10 8 -7 13 12 5 18 3 38 -9 62
-16 36 -31 47 -31 22z"/>
<path d="M4970 6864 c0 -8 5 -12 10 -9 6 3 10 10 10 16 0 5 -4 9 -10 9 -5 0
-10 -7 -10 -16z"/>
<path d="M7862 6860 c0 -14 4 -36 8 -50 6 -20 8 -21 8 -5 0 11 -4 34 -8 50 -7
27 -8 27 -8 5z"/>
<path d="M5225 6780 c3 -5 10 -10 16 -10 5 0 9 5 9 10 0 6 -7 10 -16 10 -8 0
-12 -4 -9 -10z"/>
<path d="M5675 6780 c3 -5 8 -10 11 -10 2 0 4 5 4 10 0 6 -5 10 -11 10 -5 0
-7 -4 -4 -10z"/>
<path d="M7566 6693 c1 -54 -2 -102 -6 -108 -4 -5 -10 -37 -14 -70 -5 -55 -4
-58 9 -41 8 11 15 25 15 30 0 6 12 22 26 35 26 25 27 46 3 46 -11 0 -13 18
-12 85 2 85 -2 120 -15 120 -4 0 -7 -44 -6 -97z"/>
<path d="M5075 6750 c-3 -5 1 -10 9 -10 9 0 16 5 16 10 0 6 -4 10 -9 10 -6 0
-13 -4 -16 -10z"/>
<path d="M5710 6717 c0 -38 38 -65 92 -66 51 0 72 14 38 27 -12 4 -27 19 -33
32 -10 20 -21 26 -55 28 -38 3 -42 1 -42 -21z m70 -13 c0 -8 -4 -12 -10 -9 -5
3 -10 10 -10 16 0 5 5 9 10 9 6 0 10 -7 10 -16z"/>
<path d="M5242 6690 c-7 -11 -9 -20 -4 -20 4 0 13 9 20 20 7 11 9 20 4 20 -4
0 -13 -9 -20 -20z"/>
<path d="M5885 6670 c-7 -12 2 -30 16 -30 12 0 12 27 0 35 -5 3 -12 1 -16 -5z"/>
<path d="M5090 6489 c0 -5 5 -7 10 -4 6 3 10 8 10 11 0 2 -4 4 -10 4 -5 0 -10
-5 -10 -11z"/>
<path d="M5146 6472 c-2 -4 -1 -14 5 -22 7 -12 9 -10 9 8 0 23 -5 28 -14 14z"/>
<path d="M7500 6451 c0 -5 5 -13 10 -16 16 -10 12 -28 -5 -21 -13 5 -14 2 -5
-15 9 -16 14 -18 26 -8 20 17 17 47 -6 59 -12 7 -20 7 -20 1z"/>
<path d="M5137 6372 c-6 -10 -1 -94 7 -113 5 -11 16 -14 36 -11 34 5 41 31 10
39 -11 3 -17 9 -14 14 3 5 -2 12 -10 15 -23 9 -9 24 22 24 14 0 22 4 17 8 -18
15 -64 31 -68 24z m43 -102 c0 -5 -4 -10 -10 -10 -5 0 -10 5 -10 10 0 6 5 10
10 10 6 0 10 -4 10 -10z"/>
<path d="M7459 6323 c-33 -52 -33 -53 -15 -53 9 0 20 8 23 17 4 9 15 25 25 35
18 18 17 38 -2 38 -4 0 -19 -17 -31 -37z"/>
<path d="M5858 6283 c7 -3 16 -2 19 1 4 3 -2 6 -13 5 -11 0 -14 -3 -6 -6z"/>
<path d="M7583 6240 c-12 -33 -11 -35 18 -20 13 7 19 7 19 0 0 -5 -4 -10 -10
-10 -5 0 -10 -7 -10 -15 0 -8 4 -15 8 -15 12 0 33 50 27 61 -4 5 -1 9 5 9 6 0
8 5 5 10 -14 22 -51 10 -62 -20z"/>
<path d="M5620 6112 c0 -5 7 -15 15 -22 8 -7 15 -8 15 -2 0 5 -7 15 -15 22 -8
7 -15 8 -15 2z"/>
<path d="M4925 6090 c-3 -5 -1 -10 4 -10 6 0 11 5 11 10 0 6 -2 10 -4 10 -3 0
-8 -4 -11 -10z"/>
<path d="M6420 6035 c0 -8 5 -15 10 -15 6 0 10 7 10 15 0 8 -4 15 -10 15 -5 0
-10 -7 -10 -15z"/>
<path d="M6475 6019 c-10 -15 1 -22 24 -14 12 3 19 11 16 16 -8 12 -32 11 -40
-2z"/>
<path d="M5193 5919 c-39 -34 -40 -39 -10 -39 15 0 29 9 36 24 21 39 8 47 -26
15z"/>
<path d="M4644 5867 c-3 -8 -52 -38 -110 -67 -57 -29 -103 -54 -101 -56 2 -2
27 4 57 12 57 17 86 22 132 23 30 1 45 21 50 66 3 30 -18 47 -28 22z"/>
<path d="M4902 5827 c-17 -40 -15 -55 4 -29 8 12 14 30 11 40 -3 13 -6 11 -15
-11z"/>
<path d="M6110 5816 c0 -9 30 -14 35 -6 4 6 -3 10 -14 10 -12 0 -21 -2 -21 -4z"/>
<path d="M4324 5740 c0 -11 3 -20 7 -20 10 0 19 27 12 34 -12 11 -19 6 -19
-14z"/>
<path d="M4180 5681 c0 -6 5 -13 10 -16 6 -3 10 1 10 9 0 9 -4 16 -10 16 -5 0
-10 -4 -10 -9z"/>
<path d="M5300 5419 c-14 -5 -33 -26 -43 -47 -9 -20 -28 -55 -41 -77 -18 -32
-24 -61 -29 -150 -4 -72 -3 -105 3 -95 5 8 12 35 15 60 17 131 42 194 107 273
39 46 37 54 -12 36z"/>
<path d="M4723 5403 c-14 -3 -20 -9 -16 -19 6 -17 -35 -35 -56 -24 -8 4 -22 5
-31 3 -10 -3 -21 0 -24 6 -11 17 -26 13 -26 -8 0 -28 -68 -85 -85 -71 -20 17
-24 0 -13 -55 5 -27 12 -67 15 -87 3 -21 9 -38 13 -38 4 0 8 -15 7 -33 -1 -30
-4 -33 -25 -29 -13 3 -26 11 -29 19 -3 7 -18 20 -34 29 -16 8 -29 19 -29 25 0
6 -16 27 -35 46 l-34 34 -7 -28 c-3 -15 -8 -36 -11 -45 -2 -10 0 -18 6 -18 6
0 11 -6 11 -14 0 -23 -53 -3 -103 38 -44 36 -67 45 -67 26 0 -5 -9 -10 -20
-10 -11 0 -20 -4 -20 -10 0 -5 7 -10 15 -10 8 0 15 -6 15 -13 0 -17 -28 -75
-40 -82 -5 -3 -11 -19 -15 -35 -4 -18 -17 -35 -32 -42 -28 -14 -51 -43 -41
-53 9 -9 78 38 78 53 0 6 5 12 10 12 6 0 10 6 10 14 0 24 18 28 51 12 29 -14
30 -14 23 6 -4 12 -1 24 7 30 11 7 11 11 2 15 -18 7 -16 23 3 23 9 0 18 -8 20
-18 3 -9 21 -28 40 -41 29 -20 35 -30 32 -55 -3 -29 -6 -31 -41 -31 -29 0 -37
-4 -37 -17 0 -10 -8 -36 -17 -58 -14 -32 -22 -40 -38 -36 -30 8 -48 -8 -47
-42 0 -24 -4 -31 -23 -36 -12 -3 -38 -20 -56 -37 -32 -30 -33 -32 -14 -45 29
-22 108 -18 130 6 10 11 15 23 12 27 -7 7 21 43 33 43 15 0 17 -62 3 -67 -7
-3 -13 -9 -13 -15 0 -5 5 -6 10 -3 6 4 18 1 26 -6 17 -14 16 -14 37 28 15 32
15 33 -10 53 -14 11 -31 20 -37 20 -6 0 -3 7 7 14 9 7 22 27 28 45 6 17 17 31
24 31 27 0 45 -13 45 -30 0 -26 21 -36 32 -16 13 23 33 20 52 -8 15 -24 15
-26 -13 -45 -16 -12 -37 -21 -46 -21 -13 0 -16 -6 -11 -25 5 -19 2 -27 -11
-32 -10 -4 -27 -15 -37 -25 -11 -10 -24 -18 -28 -18 -5 0 -18 -9 -30 -19 -24
-23 -18 -51 11 -51 38 0 34 -23 -11 -65 -25 -23 -60 -48 -76 -56 -18 -8 -32
-22 -34 -34 -2 -15 -9 -19 -28 -17 -14 1 -26 6 -28 11 -2 5 -11 7 -21 4 -18
-5 -18 -6 -3 -36 10 -18 23 -36 30 -40 6 -4 12 -13 12 -20 -1 -16 -113 -97
-136 -97 -11 0 -28 -7 -38 -15 -19 -15 -19 -15 4 -40 28 -30 20 -40 -42 -50
-37 -7 -54 -25 -23 -25 8 0 15 -5 15 -10 0 -18 -43 -70 -57 -70 -7 0 -13 -6
-13 -12 0 -7 -18 -28 -40 -47 -26 -22 -39 -40 -35 -50 3 -10 -3 -20 -18 -26
-16 -7 -22 -19 -22 -40 0 -30 0 -30 -62 -33 -35 -2 -63 -6 -63 -10 1 -18 31
-44 45 -39 8 4 15 2 15 -4 0 -20 -44 -89 -56 -89 -7 0 -16 -10 -20 -22 -9 -29
-138 -158 -158 -158 -19 0 -20 -4 -3 -30 16 -28 -5 -42 -55 -37 -26 3 -38 0
-38 -8 0 -7 -9 -15 -20 -18 -23 -6 -27 -25 -6 -33 15 -6 10 -44 -5 -44 -5 0
-9 -12 -9 -26 0 -19 -4 -25 -15 -20 -9 3 -15 0 -15 -8 0 -8 -13 -19 -30 -26
-16 -7 -30 -17 -30 -22 0 -6 -11 -7 -26 -4 -24 6 -26 5 -21 -15 6 -23 -16 -65
-45 -87 -10 -7 -18 -24 -18 -38 0 -20 -4 -24 -19 -19 -16 5 -18 2 -14 -14 4
-15 -1 -23 -20 -30 -16 -6 -35 -28 -49 -58 -16 -32 -35 -53 -56 -63 -17 -8
-32 -21 -32 -27 0 -7 -6 -13 -13 -13 -19 0 -50 -37 -44 -52 2 -7 -12 -23 -33
-37 -21 -13 -41 -32 -43 -43 -3 -10 -14 -18 -26 -18 -12 0 -21 -6 -21 -13 0
-7 -9 -20 -20 -30 -11 -9 -20 -24 -20 -32 0 -8 -9 -15 -19 -15 -11 0 -26 -6
-33 -14 -8 -7 -23 -16 -35 -20 -27 -9 -39 -36 -13 -29 36 10 28 -15 -11 -32
-42 -19 -68 -57 -62 -87 4 -17 -5 -21 -62 -31 -14 -2 -19 -10 -18 -25 2 -15
-3 -22 -15 -22 -9 0 -26 -14 -37 -30 -25 -37 -45 -39 -45 -4 0 30 12 54 45 90
14 15 25 33 25 41 0 8 20 35 45 61 25 25 48 55 51 66 3 12 19 33 35 48 16 15
29 30 29 33 0 4 10 15 23 25 12 10 32 38 45 63 25 50 38 63 67 69 11 2 21 12
24 23 2 11 14 30 27 42 14 12 26 39 30 62 6 40 17 51 29 31 7 -12 35 -1 35 14
0 7 18 25 39 42 31 23 39 34 34 51 -3 16 0 25 12 29 9 4 14 13 11 20 -8 20 4
44 21 44 9 0 12 -6 8 -19 -3 -11 0 -21 9 -24 18 -7 29 32 20 69 -5 20 -2 26
13 30 10 3 23 15 28 27 6 12 22 28 38 35 15 7 27 18 27 23 0 14 56 69 69 69 6
0 11 5 11 10 0 6 10 10 23 10 12 0 40 7 62 14 32 12 36 16 22 22 -10 3 -23 2
-29 -4 -10 -10 -48 -5 -48 8 0 4 7 13 15 20 8 7 15 18 15 25 0 18 31 82 63
132 15 24 27 45 27 48 0 17 69 65 116 80 52 16 54 18 39 35 -13 14 -14 23 -6
39 6 11 11 29 11 40 0 16 6 21 25 21 16 0 25 6 25 15 0 8 -5 15 -10 15 -7 0
-7 6 0 20 6 11 16 20 21 20 25 0 97 88 113 138 21 63 31 70 55 41 20 -26 45
-17 36 12 -4 11 -1 35 5 54 13 39 55 58 117 54 48 -3 83 8 83 27 0 18 -27 18
-37 0 -11 -20 -62 -9 -57 12 11 60 16 72 26 72 6 0 19 7 28 15 19 17 64 9 56
-11 -8 -20 4 -44 20 -44 8 0 14 9 14 19 0 11 5 23 11 26 19 12 -21 45 -46 39
-26 -6 -43 12 -26 29 6 6 11 21 11 32 0 13 11 27 28 36 15 8 33 19 39 26 7 6
24 20 37 30 13 11 25 28 28 39 2 10 10 19 18 19 26 0 35 27 14 42 -21 15 -64
18 -64 3 0 -5 -7 -10 -15 -10 -16 0 -85 -63 -85 -77 0 -5 -11 -20 -25 -35 -14
-15 -25 -30 -25 -34 0 -4 -11 -22 -26 -41 -14 -18 -22 -37 -19 -43 6 -9 -25
-30 -44 -30 -6 0 -11 9 -11 20 0 11 -4 20 -10 20 -13 0 -13 -26 1 -53 9 -16 9
-22 0 -25 -6 -2 -9 -7 -6 -12 3 -5 -8 -11 -25 -15 -17 -4 -28 -10 -25 -15 3
-5 -1 -15 -9 -23 -8 -8 -13 -17 -10 -20 4 -3 3 -11 -1 -18 -6 -8 -10 -7 -17 5
-5 9 -14 16 -20 16 -7 0 -7 -4 1 -14 15 -18 3 -45 -33 -76 -42 -35 -86 -81
-86 -91 0 -4 -20 -31 -45 -60 -25 -29 -45 -61 -45 -71 0 -10 -3 -18 -7 -18 -5
0 -16 -14 -25 -30 -10 -17 -25 -33 -34 -37 -22 -8 -54 -40 -54 -53 0 -6 -10
-24 -22 -40 -16 -22 -30 -30 -52 -30 -28 -1 -29 -2 -13 -14 29 -22 20 -43 -51
-113 -37 -38 -81 -87 -97 -111 -16 -24 -36 -49 -45 -55 -8 -7 -23 -24 -33 -39
-10 -16 -24 -28 -32 -28 -7 0 -17 -10 -20 -22 -14 -46 -50 -117 -60 -118 -6 0
-37 -26 -68 -57 -70 -70 -79 -80 -96 -115 -8 -16 -19 -28 -24 -28 -14 0 -63
-56 -59 -68 2 -6 -6 -22 -18 -34 -11 -13 -34 -41 -50 -63 -49 -67 -64 -85 -98
-123 -18 -21 -35 -47 -38 -59 -4 -13 -9 -23 -13 -23 -3 0 -12 -13 -19 -30 -7
-16 -24 -39 -37 -52 -14 -13 -25 -30 -25 -39 0 -9 -9 -19 -21 -22 -16 -4 -19
-11 -15 -29 3 -13 3 -17 0 -10 -11 23 -26 13 -20 -13 4 -14 2 -25 -4 -25 -5 0
-9 -3 -9 -7 4 -23 -3 -31 -21 -26 -11 3 -20 14 -20 24 0 11 -4 19 -10 19 -15
0 -12 -46 4 -59 20 -17 -6 -85 -44 -118 -17 -14 -30 -32 -30 -42 0 -9 -5 -22
-12 -29 -9 -9 -7 -17 7 -34 11 -13 -6 1 -38 31 -79 77 -93 108 -77 182 7 33
17 59 21 59 5 0 9 7 9 16 0 8 4 13 9 9 11 -6 51 41 51 60 0 6 9 22 20 35 11
13 20 26 20 29 0 3 26 34 58 67 31 34 62 70 68 80 6 11 24 26 41 34 17 8 31
22 30 30 0 8 3 27 6 43 11 40 -8 34 -39 -13 -15 -22 -30 -40 -34 -40 -4 0 -24
-24 -44 -52 -20 -29 -56 -78 -81 -108 -25 -30 -55 -68 -68 -84 -12 -16 -28
-34 -34 -42 -7 -7 -13 -17 -13 -23 0 -6 -4 -11 -10 -11 -5 0 -10 -6 -10 -13 0
-8 -9 -22 -20 -32 -22 -20 -25 -56 -11 -117 9 -41 120 -158 236 -252 33 -27
62 -52 65 -55 7 -8 114 -82 148 -102 15 -8 27 -23 27 -31 0 -31 103 -93 139
-84 12 3 48 26 80 51 32 25 67 45 77 45 33 0 75 -33 138 -109 74 -88 80 -114
37 -161 -43 -47 -41 -69 12 -117 77 -71 114 -70 155 5 14 26 44 65 66 87 23
21 41 43 41 47 0 16 87 98 104 98 9 0 31 -15 49 -34 18 -18 44 -36 59 -40 45
-10 47 -47 5 -114 -19 -31 -43 -76 -52 -99 -9 -23 -27 -49 -41 -57 -26 -18
-74 -111 -74 -145 0 -17 11 -27 45 -42 25 -11 45 -26 45 -34 0 -21 33 -35 85
-35 43 0 49 3 117 72 39 40 89 96 110 123 22 28 55 67 74 87 19 20 34 40 34
43 0 4 13 25 29 48 16 23 29 44 29 47 0 3 16 23 36 44 39 43 49 67 16 39 -11
-10 -29 -26 -40 -35 -21 -19 -28 -10 -9 9 18 18 59 143 59 179 0 18 4 44 10
58 5 14 6 26 1 26 -13 0 -33 -28 -28 -37 3 -5 0 -36 -7 -70 -15 -68 -66 -159
-97 -168 -10 -4 -30 -26 -44 -49 -32 -55 -55 -76 -91 -82 -29 -5 -47 -22 -38
-36 3 -4 -1 -8 -9 -8 -8 0 -22 -9 -32 -20 -23 -25 -31 -25 -62 0 -36 28 -67
26 -81 -5 -19 -41 -14 -50 12 -26 21 20 27 21 45 9 26 -16 27 -28 1 -28 -11 0
-20 -3 -20 -7 0 -5 -4 -14 -9 -22 -13 -20 -84 7 -75 29 4 8 9 26 12 40 5 27
49 90 62 90 4 0 10 -10 13 -21 6 -21 7 -21 23 -4 17 17 17 18 -5 36 -22 18
-23 21 -7 38 9 10 23 41 31 69 20 67 48 73 39 10 -5 -40 -4 -42 10 -24 18 22
19 36 7 86 -9 40 -61 100 -86 100 -9 0 -30 13 -48 30 -35 33 -83 48 -100 31
-6 -6 -19 -11 -28 -11 -9 0 -30 -16 -45 -36 -16 -20 -37 -45 -46 -57 -10 -11
-18 -23 -18 -27 0 -13 -79 -60 -100 -60 -11 0 -20 -4 -20 -9 0 -5 -7 -12 -16
-15 -12 -5 -14 -1 -8 17 4 12 7 34 6 50 -2 21 2 27 18 27 11 0 20 6 20 14 0 7
7 19 15 26 11 9 12 16 2 31 -9 15 -9 21 1 27 9 6 6 14 -13 32 -30 28 -44 21
-21 -11 14 -21 14 -24 -6 -41 -12 -10 -24 -18 -28 -18 -5 0 -25 20 -46 45 -21
26 -46 45 -57 45 -11 0 -17 3 -13 7 3 4 -5 12 -18 17 -14 6 -36 27 -48 46 -19
28 -34 37 -72 45 -37 8 -51 16 -58 35 -5 15 -5 27 2 34 8 8 12 4 16 -12 7 -25
19 -29 28 -7 3 8 15 15 26 15 11 0 32 8 47 17 15 10 41 16 64 14 32 -2 37 0
34 16 -2 10 -4 21 -4 26 -1 4 -7 7 -15 7 -8 0 -18 5 -21 10 -8 12 16 70 28 70
10 0 37 26 37 34 0 3 -7 6 -15 6 -8 0 -15 5 -15 11 0 6 6 8 13 5 6 -3 20 -9
30 -12 23 -8 22 -25 -3 -31 -11 -3 -17 -9 -14 -15 3 -5 0 -15 -6 -23 -13 -16
-6 -65 10 -65 6 0 19 -9 30 -20 22 -22 60 -26 78 -8 9 9 15 8 26 -8 13 -17 13
-19 -10 -22 -31 -4 -22 -18 24 -38 l37 -15 -30 -25 c-34 -27 -48 -26 -54 2 -5
27 -32 45 -58 39 -21 -5 -23 -2 -23 30 0 41 -5 43 -31 12 -24 -29 -24 -44 1
-59 27 -17 25 -30 -10 -56 -37 -27 -38 -42 -5 -42 14 0 25 5 25 10 0 13 36 13
58 -1 14 -9 27 -8 55 6 43 20 77 14 57 -10 -7 -8 -21 -15 -31 -15 -24 0 -32
-15 -15 -29 22 -18 73 -2 80 25 9 36 29 30 21 -6 -8 -35 -7 -35 31 -15 16 8
39 15 51 15 15 0 21 5 17 14 -5 14 20 46 37 46 13 0 11 -6 -8 -25 -23 -23 3
-39 31 -19 11 8 32 14 46 14 15 0 35 7 46 15 22 17 44 19 44 5 0 -5 -9 -10
-20 -10 -11 0 -20 -7 -20 -15 0 -18 12 -19 28 -3 6 6 14 9 18 6 10 -11 -7 -68
-21 -68 -7 0 -16 -7 -19 -16 -5 -14 2 -15 53 -11 59 6 60 6 70 -24 10 -28 13
-30 46 -23 42 7 43 2 10 -42 -14 -18 -25 -35 -25 -38 0 -3 15 -6 34 -6 35 0
63 21 51 40 -3 5 -2 10 4 10 20 0 21 -20 1 -56 -12 -20 -19 -38 -18 -40 8 -7
74 -7 86 0 18 11 4 26 -24 26 -14 0 -22 4 -19 10 3 6 17 10 30 10 31 0 41 16
18 29 -23 12 -15 20 28 25 40 4 52 31 18 41 -15 5 -25 2 -31 -9 -10 -17 -54
-21 -77 -7 -23 15 -1 32 37 29 37 -3 37 -3 43 42 3 25 7 37 7 26 2 -14 5 -16
16 -7 11 9 11 18 2 44 -6 17 -15 38 -20 45 -11 18 -1 26 21 17 10 -5 21 -7 26
-7 4 1 7 -7 7 -18 0 -11 4 -20 9 -20 9 0 21 23 21 40 0 16 -79 95 -87 87 -4
-5 3 -16 16 -26 25 -19 16 -37 -9 -20 -22 13 -30 11 -30 -9 0 -27 -10 -33 -33
-20 -16 8 -22 8 -25 -1 -2 -6 -8 -11 -14 -11 -6 0 -4 8 5 18 23 25 21 49 -4
57 -11 4 -21 5 -22 3 -18 -33 -32 -45 -73 -61 -27 -10 -56 -23 -65 -27 -17 -9
-29 -4 -29 12 0 4 9 8 20 8 11 0 23 7 26 15 4 8 14 15 24 15 11 0 22 5 25 11
4 5 18 14 31 19 15 6 22 15 18 25 -3 8 -10 15 -15 15 -5 0 -9 7 -9 15 0 8 -7
15 -16 15 -10 0 -13 6 -10 18 5 16 2 18 -24 14 -23 -3 -30 0 -30 12 0 37 -44
0 -56 -47 -3 -16 -17 -33 -29 -39 -13 -6 -26 -19 -28 -30 -6 -21 -32 -20 -32
0 0 6 -6 17 -13 24 -11 11 -18 8 -37 -14 -13 -16 -33 -28 -43 -28 -11 0 -25
-6 -31 -14 -6 -7 -28 -16 -49 -20 -20 -3 -47 -9 -59 -12 -31 -9 -30 12 2 42
31 29 31 34 -1 34 -20 0 -25 4 -20 16 3 9 6 20 6 25 0 5 9 9 20 9 11 0 20 4
20 10 0 14 37 31 54 24 9 -3 16 -16 16 -29 0 -20 3 -22 32 -16 39 8 46 29 23
77 -17 35 -49 46 -72 23 -7 -7 -20 -8 -30 -5 -16 7 -15 10 12 32 31 25 62 33
49 13 -5 -8 6 -10 33 -8 l40 4 -2 -47 c-3 -53 -3 -53 26 -37 16 8 18 13 8 25
-9 11 -8 14 3 14 8 0 23 9 32 19 15 16 22 18 36 8 15 -9 22 -7 39 14 22 27 26
39 11 39 -5 0 -18 9 -29 21 -12 13 -21 17 -26 10 -9 -16 -25 -13 -25 4 0 9 -7
18 -15 21 -9 4 -13 13 -10 23 3 9 -1 26 -9 36 -10 14 -11 24 -4 32 8 9 7 13
-3 13 -8 0 -20 9 -27 21 -9 13 -20 19 -32 16 -18 -5 -18 -3 -4 18 14 22 12 25
-32 69 -25 26 -44 49 -41 52 7 7 77 -45 77 -56 0 -4 13 -13 29 -20 16 -6 41
-25 57 -41 15 -16 32 -29 37 -29 6 0 29 -16 53 -35 23 -19 46 -35 51 -35 5 0
29 -20 53 -45 24 -25 49 -45 56 -45 6 0 23 -10 38 -21 15 -12 29 -19 32 -16 5
5 -19 25 -106 92 -29 22 -87 67 -129 100 -42 34 -98 76 -124 95 -94 67 -120
157 -73 253 13 26 21 47 19 47 -3 0 -25 -19 -50 -42 -24 -24 -50 -42 -58 -40
-7 1 -16 -2 -20 -8 -3 -5 -19 -10 -35 -10 -16 0 -32 -4 -35 -10 -10 -17 -25
-11 -25 9 0 11 8 26 18 33 24 18 92 103 92 115 0 6 22 33 49 60 27 27 60 72
75 100 14 28 35 54 46 58 11 3 20 12 20 19 0 13 54 90 114 162 14 18 26 35 26
38 0 4 18 31 40 60 22 29 40 57 40 62 0 5 9 15 20 22 11 7 20 17 20 22 0 6 16
24 35 41 19 17 35 35 35 41 0 5 16 29 35 52 39 48 51 104 16 72 -10 -9 -27
-18 -38 -19 -15 -1 -18 -7 -15 -24 2 -13 -1 -23 -7 -23 -6 0 -11 -7 -11 -15 0
-8 -5 -15 -11 -15 -17 0 -79 -63 -79 -80 0 -15 -46 -60 -62 -60 -5 0 -7 -13
-3 -30 5 -23 3 -30 -8 -30 -8 0 -18 -7 -21 -16 -3 -8 -11 -12 -16 -9 -6 4 -9
3 -8 -2 5 -20 -15 -53 -33 -53 -21 0 -25 20 -7 38 7 7 9 12 4 12 -4 0 2 12 13
26 12 15 21 35 21 45 0 11 9 21 23 24 13 4 28 18 34 35 7 18 19 30 34 32 16 2
25 12 31 36 5 19 15 32 24 32 9 0 14 5 12 12 -3 7 5 21 17 33 12 11 20 26 18
33 -3 6 2 12 11 12 20 0 36 32 29 58 -4 18 -1 22 20 22 25 0 57 -23 57 -41 0
-16 20 -10 56 17 20 16 34 35 34 48 0 12 10 33 23 46 20 23 53 76 76 126 5 12
19 28 30 36 11 8 27 30 35 50 8 19 27 43 41 52 14 9 25 22 25 30 0 7 10 24 23
38 12 13 34 42 48 64 14 22 52 65 83 97 31 32 56 62 56 66 0 5 7 15 16 22 9 7
39 47 67 89 28 41 57 79 65 84 24 14 57 57 58 75 2 28 12 39 42 46 16 3 29 11
30 18 1 7 4 26 7 42 11 67 8 93 -14 116 -13 13 -27 33 -33 43 -9 16 -8 18 8
12 39 -15 145 -36 154 -31 5 3 11 1 14 -4 17 -27 176 60 176 96 0 7 5 13 10
13 6 0 10 5 10 10 0 6 12 23 26 38 39 41 80 132 65 142 -8 4 -10 16 -7 28 4
11 2 23 -3 26 -6 4 -15 -13 -21 -36 -7 -24 -16 -51 -21 -60 -6 -13 -5 -18 3
-18 7 -1 0 -7 -17 -14 -16 -8 -39 -28 -50 -44 -21 -33 -55 -48 -66 -30 -4 6
-16 9 -27 6 -16 -4 -22 2 -31 32 -6 20 -11 49 -11 64 0 14 -4 26 -10 26 -19 0
-10 55 11 74 16 14 20 24 15 49 -4 18 -6 51 -6 74 1 39 -1 42 -25 37 -25 -4
-35 10 -12 19 14 6 1 6 -30 0z m-9 -88 c3 -8 15 -14 28 -12 20 2 23 -3 26 -34
3 -31 0 -37 -15 -35 -11 0 -17 -5 -15 -15 1 -9 -6 -19 -15 -23 -10 -3 -39 -19
-65 -35 -45 -29 -47 -29 -82 -13 -40 18 -51 48 -14 39 27 -7 58 9 58 30 0 11
-6 14 -20 9 -11 -3 -28 -9 -39 -12 -25 -8 -33 18 -15 45 11 15 26 21 53 21 31
0 40 5 49 25 13 28 56 35 66 10z m8 -252 c10 -9 18 -23 18 -31 0 -12 -6 -10
-25 8 -38 35 -31 58 7 23z m-40 -106 c-12 -6 -22 -14 -22 -19 0 -13 -13 -9
-38 12 -19 16 -21 23 -12 39 10 20 10 20 52 -1 39 -20 40 -22 20 -31z m-499
-172 c-3 -9 -8 -14 -10 -11 -3 3 -2 9 2 15 9 16 15 13 8 -4z m331 -11 c24 -9
20 -37 -4 -29 -23 7 -27 -7 -5 -25 12 -10 10 -16 -14 -42 -16 -17 -32 -47 -35
-67 -4 -26 -14 -41 -35 -53 -17 -9 -37 -33 -46 -55 -9 -21 -36 -57 -60 -81
-25 -24 -45 -49 -45 -57 0 -7 -11 -20 -25 -29 -14 -9 -25 -22 -25 -29 -1 -16
-35 -57 -49 -57 -6 0 -11 11 -11 25 0 18 7 28 24 35 18 6 27 20 31 44 5 22 14
36 26 39 13 3 19 14 19 31 0 16 6 26 15 26 9 0 15 9 15 23 0 13 14 32 35 47
19 14 39 39 45 56 6 17 26 44 45 61 31 28 34 34 32 87 -2 55 -1 56 25 56 14 0
33 -3 42 -6z m-370 -540 c9 -3 16 -15 16 -25 0 -15 -7 -19 -32 -19 -26 0 -30
-3 -18 -11 12 -8 10 -9 -9 -4 -21 7 -23 5 -19 -19 3 -17 0 -33 -9 -42 -8 -8
-12 -21 -10 -29 6 -14 -54 -75 -73 -75 -21 0 -8 46 20 74 17 16 30 40 30 52 0
14 12 31 31 44 16 12 28 28 25 35 -7 19 20 30 48 19z m-174 -249 c0 -8 -7 -15
-15 -15 -16 0 -20 12 -8 23 11 12 23 8 23 -8z m-10 -29 c0 -16 -22 -58 -27
-52 -5 5 -28 -34 -38 -64 -9 -29 -32 -60 -51 -71 -16 -8 -22 -18 -19 -30 5
-14 1 -16 -15 -12 -14 4 -18 9 -10 17 6 9 5 19 -5 33 -13 18 -11 23 26 58 21
22 39 45 39 52 0 7 9 18 20 25 11 7 20 21 20 30 0 13 8 18 30 18 17 0 30 -2
30 -4z m-840 -576 c0 -5 -5 -10 -11 -10 -5 0 -7 5 -4 10 3 6 8 10 11 10 2 0 4
-4 4 -10z m250 -200 c0 -5 -2 -10 -4 -10 -3 0 -8 5 -11 10 -3 6 -1 10 4 10 6
0 11 -4 11 -10z m-90 -20 c0 -5 -7 -10 -15 -10 -8 0 -15 5 -15 10 0 6 7 10 15
10 8 0 15 -4 15 -10z m29 -47 c0 -5 -4 -17 -9 -28 -8 -18 -9 -17 -9 8 -1 15 4
27 9 27 6 0 10 -3 9 -7z m-139 -107 c0 -2 -16 -20 -35 -39 -19 -19 -35 -42
-35 -50 0 -19 -27 -30 -33 -14 -2 7 17 33 42 59 41 42 61 56 61 44z m40 -52
c0 -8 -5 -12 -10 -9 -6 4 -8 11 -5 16 9 14 15 11 15 -7z m-50 -54 c0 -5 -2
-10 -4 -10 -3 0 -8 5 -11 10 -3 6 -1 10 4 10 6 0 11 -4 11 -10z m-90 -30 c0
-12 -35 -31 -44 -23 -8 9 14 33 30 33 8 0 14 -4 14 -10z m45 -40 c3 -5 1 -10
-4 -10 -6 0 -11 5 -11 10 0 6 2 10 4 10 3 0 8 -4 11 -10z m-159 -102 c-11 -15
-16 -18 -16 -7 0 16 21 42 28 34 2 -2 -3 -14 -12 -27z m-26 -48 c0 -12 -28
-25 -36 -17 -9 9 6 27 22 27 8 0 14 -5 14 -10z m-44 -52 c4 -6 3 -8 -4 -4 -5
3 -13 0 -15 -6 -3 -8 -6 -6 -6 5 -1 19 14 23 25 5z m285 -28 c28 -15 24 -40
-6 -40 -20 0 -25 5 -25 25 0 28 3 29 31 15z m-318 -14 c3 -9 -4 -21 -19 -30
-20 -14 -24 -14 -24 -2 0 40 31 63 43 32z m375 -77 c-8 -5 -7 -12 5 -24 24
-23 21 -34 -8 -31 -13 1 -34 15 -45 29 l-21 26 26 7 c14 3 25 13 25 23 1 14 3
13 15 -3 11 -15 12 -22 3 -27z m-468 -44 c-12 -15 -40 -21 -40 -8 0 3 8 15 17
25 21 23 43 7 23 -17z m526 -3 c-4 -3 -14 2 -24 12 -16 18 -16 18 6 6 13 -6
21 -14 18 -18z m24 -17 c-7 -9 -15 -13 -17 -11 -7 7 7 26 19 26 6 0 6 -6 -2
-15z m-120 -22 c0 -3 -8 -15 -17 -25 -16 -18 -16 -18 3 -12 10 4 29 14 41 22
20 12 24 11 40 -7 9 -12 25 -21 34 -21 23 0 30 -10 18 -31 -14 -27 -29 -23
-40 11 -13 35 -49 43 -49 11 0 -26 -20 -38 -34 -20 -6 8 -19 13 -28 11 -22 -4
-23 16 -2 46 14 21 34 30 34 15z m-537 -63 c-3 -11 -7 -20 -9 -20 -2 0 -4 9
-4 20 0 11 4 20 9 20 5 0 7 -9 4 -20z m117 -14 c0 -3 -4 -8 -10 -11 -5 -3 -10
-1 -10 4 0 6 5 11 10 11 6 0 10 -2 10 -4z m420 -15 c0 -5 -7 -14 -15 -21 -12
-10 -15 -10 -15 2 0 8 3 18 7 21 9 10 23 9 23 -2z m-425 -41 c3 -5 1 -10 -4
-10 -6 0 -11 5 -11 10 0 6 2 10 4 10 3 0 8 -4 11 -10z m575 -9 c0 -10 -24 -21
-46 -21 -8 0 -14 7 -14 15 0 10 10 15 30 15 17 0 30 -4 30 -9z m30 -11 c0 -5
-5 -10 -11 -10 -5 0 -7 5 -4 10 3 6 8 10 11 10 2 0 4 -4 4 -10z m-330 -10 c0
-5 -5 -10 -11 -10 -5 0 -7 5 -4 10 3 6 8 10 11 10 2 0 4 -4 4 -10z m220 -4 c0
-3 -4 -8 -10 -11 -5 -3 -10 -1 -10 4 0 6 5 11 10 11 6 0 10 -2 10 -4z m-130
-20 c0 -3 -4 -8 -10 -11 -5 -3 -10 -1 -10 4 0 6 5 11 10 11 6 0 10 -2 10 -4z
m190 -11 c0 -8 -7 -15 -15 -15 -16 0 -20 12 -8 23 11 12 23 8 23 -8z m41 -8
c-1 -12 -15 -9 -19 4 -3 6 1 10 8 8 6 -3 11 -8 11 -12z m-171 -17 c0 -6 -7
-13 -15 -16 -8 -4 -15 -12 -15 -20 0 -17 -12 -18 -27 -3 -9 9 -6 16 10 30 24
20 47 25 47 9z m-910 -35 c0 -8 -9 -15 -20 -15 -11 0 -20 7 -20 15 0 8 9 15
20 15 11 0 20 -7 20 -15z m830 7 c0 -5 -6 -16 -13 -26 -13 -18 -14 -18 -35 -1
-11 10 -19 22 -16 27 7 10 64 11 64 0z m-470 -47 c0 -8 -7 -15 -15 -15 -16 0
-20 12 -8 23 11 12 23 8 23 -8z m375 5 c3 -5 -3 -10 -15 -10 -12 0 -18 5 -15
10 3 6 10 10 15 10 5 0 12 -4 15 -10z m240 -19 c-9 -16 -25 -3 -18 15 4 10 9
12 15 6 6 -6 7 -15 3 -21z m-738 3 c-3 -3 -12 -4 -19 -1 -8 3 -5 6 6 6 11 1
17 -2 13 -5z m560 -16 c-3 -8 -6 -5 -6 6 -1 11 2 17 5 13 3 -3 4 -12 1 -19z
m-622 -37 c10 -22 22 -38 26 -35 5 3 9 -4 9 -15 0 -28 -17 -35 -30 -12 -9 18
-12 19 -38 5 -41 -21 -62 -18 -33 6 l23 20 -23 2 c-13 0 -31 1 -41 0 -21 -2
-43 24 -28 33 6 4 17 2 25 -5 11 -9 20 -5 46 19 17 17 35 29 39 26 3 -2 15
-22 25 -44z m415 19 c0 -5 -5 -10 -11 -10 -5 0 -7 5 -4 10 3 6 8 10 11 10 2 0
4 -4 4 -10z m739 -46 c2 -2 -2 -10 -9 -19 -15 -19 -31 -10 -23 13 6 16 5 16
-14 0 -22 -20 -48 -23 -58 -8 -12 19 83 32 104 14z m-144 -61 c-8 -35 -13 -39
-26 -26 -8 8 -8 17 0 32 17 31 35 27 26 -6z m-951 -14 c-9 -11 -19 -17 -21
-15 -8 7 21 45 30 39 4 -3 1 -14 -9 -24z m864 -6 c-5 -25 -28 -28 -28 -4 0 12
6 21 16 21 9 0 14 -7 12 -17z m232 -43 c-30 -23 -50 -26 -50 -6 0 15 19 23 55
25 18 0 18 -1 -5 -19z m-980 -30 c0 -8 -31 -30 -43 -30 -3 0 -3 9 0 20 5 20
43 29 43 10z m220 -22 c0 -16 -3 -17 -20 -8 -11 6 -20 17 -20 24 0 9 7 12 20
9 11 -3 20 -14 20 -25z m850 28 c0 -3 -4 -8 -10 -11 -5 -3 -10 -1 -10 4 0 6 5
11 10 11 6 0 10 -2 10 -4z m-90 -16 c0 -5 -5 -10 -11 -10 -5 0 -7 5 -4 10 3 6
8 10 11 10 2 0 4 -4 4 -10z m45 -20 c-3 -5 -12 -7 -20 -3 -21 7 -19 13 6 13
11 0 18 -4 14 -10z m97 -25 c0 -5 -5 -11 -11 -13 -6 -2 -11 4 -11 13 0 9 5 15
11 13 6 -2 11 -8 11 -13z m-165 -11 c-3 -3 -12 -4 -19 -1 -8 3 -5 6 6 6 11 1
17 -2 13 -5z m-186 -103 c19 -21 44 -44 57 -50 12 -6 22 -18 22 -26 0 -19 -14
-19 -30 0 -7 8 -17 15 -23 15 -11 0 -81 73 -84 90 -6 23 26 8 58 -29z m-375
-72 c-2 -17 -15 -38 -30 -50 -14 -11 -26 -27 -26 -35 0 -8 -7 -14 -15 -14 -22
0 -18 38 5 50 18 10 39 78 31 105 -1 5 7 1 18 -9 14 -12 19 -28 17 -47z m314
-357 c0 -9 -25 -34 -46 -45 -6 -4 -10 3 -9 15 2 25 55 53 55 30z"/>
<path d="M4082 5248 c-12 -54 -83 -181 -153 -275 -41 -55 -45 -63 -29 -63 6 0
25 22 43 49 17 27 60 88 95 136 35 48 68 98 74 111 6 13 15 24 19 24 5 0 1 16
-8 35 -9 19 -19 35 -22 35 -4 0 -12 -24 -19 -52z"/>
<path d="M4251 5233 c1 -26 15 -58 20 -47 9 19 4 57 -8 61 -8 3 -13 -3 -12
-14z"/>
<path d="M4276 5155 c-3 -8 -1 -15 4 -15 6 0 10 7 10 15 0 8 -2 15 -4 15 -2 0
-6 -7 -10 -15z"/>
<path d="M4930 5155 c0 -8 5 -15 10 -15 6 0 10 7 10 15 0 8 -4 15 -10 15 -5 0
-10 -7 -10 -15z"/>
<path d="M3984 4902 c-6 -4 -14 -20 -18 -35 -8 -33 -18 -47 -63 -90 -18 -17
-33 -35 -33 -40 0 -5 -25 -38 -55 -72 -59 -68 -63 -75 -40 -75 8 0 15 5 15 11
0 5 4 8 9 5 5 -3 11 1 15 9 3 8 12 15 21 15 8 0 15 8 15 18 0 10 3 22 8 26 4
4 7 13 7 19 0 7 10 11 23 9 15 -2 22 2 22 13 0 9 9 19 20 22 10 3 22 14 25 24
4 10 13 19 22 19 13 0 13 3 3 15 -7 8 -16 12 -21 9 -22 -13 -6 17 16 32 27 17
42 51 28 65 -4 4 -13 5 -19 1z"/>
<path d="M3785 4787 c-98 -126 -118 -163 -50 -89 19 20 35 42 35 48 0 6 7 17
15 24 22 19 58 70 48 70 -4 -1 -26 -24 -48 -53z"/>
<path d="M4048 4803 c7 -3 16 -2 19 1 4 3 -2 6 -13 5 -11 0 -14 -3 -6 -6z"/>
<path d="M4752 4736 c16 -12 16 -14 -2 -42 -11 -16 -25 -38 -32 -48 -7 -11
-23 -30 -35 -43 -23 -24 -31 -53 -14 -53 5 0 11 6 14 14 3 8 46 42 96 75 100
67 113 81 79 81 -13 1 -34 7 -48 15 -14 8 -36 14 -50 14 -23 0 -23 -1 -8 -13z"/>
<path d="M4653 4703 c-18 -6 -16 -23 1 -23 17 0 30 16 19 23 -5 2 -14 2 -20 0z"/>
<path d="M3939 4669 c20 -22 41 -19 41 7 0 9 -11 14 -30 14 l-31 0 20 -21z"/>
<path d="M3640 4599 c0 -5 5 -7 10 -4 6 3 10 8 10 11 0 2 -4 4 -10 4 -5 0 -10
-5 -10 -11z"/>
<path d="M4156 4595 c7 -17 20 -20 28 -6 3 5 -1 12 -10 15 -22 9 -24 8 -18 -9z"/>
<path d="M4097 4566 c-3 -8 0 -17 7 -19 18 -7 40 8 32 22 -10 16 -33 14 -39
-3z"/>
<path d="M3723 4551 c-11 -10 -36 -42 -54 -72 -18 -30 -51 -72 -73 -95 -23
-22 -54 -58 -71 -78 -16 -20 -45 -53 -62 -73 -37 -40 -42 -56 -15 -46 25 10
82 68 82 84 0 8 11 23 25 33 14 10 25 22 25 26 0 4 15 24 33 44 25 27 41 36
65 36 18 0 32 5 32 10 0 6 -7 10 -15 10 -23 0 -18 28 9 45 14 10 27 30 30 51
5 22 11 32 18 28 7 -4 8 -3 4 4 -9 15 -7 15 -33 -7z"/>
<path d="M3585 4530 c-3 -5 -1 -10 4 -10 6 0 11 5 11 10 0 6 -2 10 -4 10 -3 0
-8 -4 -11 -10z"/>
<path d="M4080 4521 c0 -5 -7 -17 -16 -26 -9 -9 -14 -19 -10 -22 6 -6 45 36
46 50 0 4 -4 7 -10 7 -5 0 -10 -4 -10 -9z"/>
<path d="M4615 4500 c-3 -5 -1 -10 4 -10 6 0 11 5 11 10 0 6 -2 10 -4 10 -3 0
-8 -4 -11 -10z"/>
<path d="M4007 4453 c-14 -13 -6 -42 13 -48 30 -9 40 2 27 30 -12 24 -27 31
-40 18z"/>
<path d="M4570 4449 c0 -5 5 -7 10 -4 6 3 10 8 10 11 0 2 -4 4 -10 4 -5 0 -10
-5 -10 -11z"/>
<path d="M3469 4383 l-24 -28 28 24 c25 23 32 31 24 31 -2 0 -14 -12 -28 -27z"/>
<path d="M3935 4400 c-3 -5 1 -10 9 -10 9 0 16 5 16 10 0 6 -4 10 -9 10 -6 0
-13 -4 -16 -10z"/>
<path d="M3672 4350 c0 -14 2 -19 5 -12 2 6 2 18 0 25 -3 6 -5 1 -5 -13z"/>
<path d="M3860 4301 c0 -25 20 -38 31 -20 15 23 10 39 -11 39 -13 0 -20 -7
-20 -19z"/>
<path d="M4435 4290 c-3 -5 -2 -10 4 -10 5 0 13 5 16 10 3 6 2 10 -4 10 -5 0
-13 -4 -16 -10z"/>
<path d="M3846 4261 c-4 -7 -5 -15 -2 -18 9 -9 19 4 14 18 -4 11 -6 11 -12 0z"/>
<path d="M3355 4100 c-27 -39 -56 -70 -62 -70 -7 0 -13 -6 -13 -12 -1 -7 -14
-29 -30 -48 -48 -55 -36 -71 15 -20 24 25 44 48 45 53 0 14 41 48 50 42 6 -4
10 3 10 15 0 12 11 41 25 66 37 66 17 53 -40 -26z"/>
<path d="M3805 4160 c-4 -6 5 -10 19 -10 14 0 26 5 26 10 0 6 -9 10 -19 10
-11 0 -23 -4 -26 -10z"/>
<path d="M3760 4100 c0 -5 5 -10 11 -10 5 0 7 5 4 10 -3 6 -8 10 -11 10 -2 0
-4 -4 -4 -10z"/>
<path d="M3729 4038 c-1 -7 0 -19 1 -27 1 -8 -4 -12 -12 -9 -7 3 -24 1 -37 -3
-18 -7 -21 -12 -12 -23 6 -8 25 -16 41 -18 25 -4 31 0 39 23 7 20 6 29 -2 32
-9 3 -8 8 2 20 12 15 11 17 -3 17 -9 0 -17 -6 -17 -12z"/>
<path d="M3615 3913 c1 -36 4 -39 35 -34 13 1 13 61 1 61 -5 0 -16 2 -24 5
-10 5 -14 -3 -12 -32z"/>
<path d="M4130 3926 c0 -2 7 -7 16 -10 8 -3 12 -2 9 4 -6 10 -25 14 -25 6z"/>
<path d="M3142 3854 c-23 -25 -40 -49 -36 -55 3 -5 -5 -21 -18 -34 -48 -50
-63 -70 -60 -81 1 -6 -7 -14 -18 -17 -11 -3 -24 -16 -29 -29 -5 -12 -19 -33
-32 -45 -39 -35 -69 -70 -69 -81 0 -5 -7 -15 -15 -22 -21 -18 -19 -29 5 -23
11 3 20 11 20 17 0 7 10 23 21 35 12 13 36 42 54 65 18 24 48 59 66 78 38 41
46 51 73 92 10 16 39 49 63 73 41 40 51 63 27 69 -5 2 -28 -17 -52 -42z"/>
<path d="M3507 3824 c-4 -4 -4 -10 -2 -14 6 -10 55 0 55 11 0 10 -43 12 -53 3z"/>
<path d="M3460 3754 c-7 -19 -7 -31 1 -40 20 -24 29 -15 29 26 0 46 -16 53
-30 14z"/>
<path d="M4047 3773 c-4 -3 -7 -11 -7 -17 0 -6 5 -5 12 2 6 6 9 14 7 17 -3 3
-9 2 -12 -2z"/>
<path d="M3415 3680 c-10 -11 -29 -20 -42 -20 -17 0 -23 -6 -23 -23 0 -13 6
-32 14 -43 13 -16 18 -17 35 -6 12 6 31 12 44 12 34 0 59 21 47 40 -7 12 -12
12 -22 2 -25 -25 -41 -14 -35 23 7 41 6 41 -18 15z"/>
<path d="M3480 3682 c0 -5 7 -16 16 -23 14 -12 16 -11 13 5 -4 20 -29 35 -29
18z"/>
<path d="M3370 3550 c-12 -8 -9 -10 13 -10 16 0 26 4 22 10 -8 12 -16 12 -35
0z"/>
<path d="M3260 3460 c0 -5 5 -10 10 -10 6 0 10 5 10 10 0 6 -4 10 -10 10 -5 0
-10 -4 -10 -10z"/>
<path d="M2830 3441 c0 -5 -14 -24 -31 -42 -28 -30 -57 -64 -168 -200 -13 -16
-21 -32 -18 -35 7 -7 47 18 47 29 0 5 18 25 40 46 22 20 40 43 40 50 0 13 6
21 58 75 17 19 32 42 32 51 0 8 5 15 10 15 6 0 10 5 10 10 0 6 -4 10 -10 10
-5 0 -10 -4 -10 -9z"/>
<path d="M3785 3430 c-10 -11 -14 -20 -9 -20 5 0 15 9 22 20 7 11 11 20 9 20
-2 0 -12 -9 -22 -20z"/>
<path d="M3666 3279 c-38 -56 -27 -59 12 -4 17 25 28 45 23 45 -5 0 -21 -18
-35 -41z"/>
<path d="M3146 3291 c-17 -19 -17 -19 3 -14 12 3 21 12 21 19 0 18 -4 18 -24
-5z"/>
<path d="M2580 3125 c0 -9 6 -12 15 -9 8 4 15 10 15 15 0 5 -7 9 -15 9 -8 0
-15 -7 -15 -15z"/>
<path d="M2515 3066 c-16 -17 -30 -33 -30 -36 -3 -21 -18 -50 -26 -50 -11 0
-39 -25 -39 -34 0 -3 -11 -16 -25 -30 -27 -27 -33 -56 -12 -56 7 0 17 10 22
23 6 13 17 21 28 19 11 -2 17 4 17 16 0 10 25 45 55 78 30 32 55 65 55 72 0 6
0 15 1 19 2 17 -18 8 -46 -21z"/>
<path d="M2578 3033 c7 -3 16 -2 19 1 4 3 -2 6 -13 5 -11 0 -14 -3 -6 -6z"/>
<path d="M3341 2854 c-16 -37 -9 -39 11 -3 9 16 14 29 9 29 -4 0 -13 -12 -20
-26z"/>
<path d="M3205 2749 c-4 -6 -5 -13 -2 -16 7 -7 27 6 27 18 0 12 -17 12 -25 -2z"/>
<path d="M2401 2714 c0 -11 3 -14 6 -6 3 7 2 16 -1 19 -3 4 -6 -2 -5 -13z"/>
<path d="M2370 2620 c0 -5 5 -10 11 -10 5 0 7 5 4 10 -3 6 -8 10 -11 10 -2 0
-4 -4 -4 -10z"/>
<path d="M2256 2495 c4 -8 8 -15 10 -15 2 0 4 7 4 15 0 8 -4 15 -10 15 -5 0
-7 -7 -4 -15z"/>
<path d="M2200 2450 c0 -5 5 -10 10 -10 6 0 10 5 10 10 0 6 -4 10 -10 10 -5 0
-10 -4 -10 -10z"/>
<path d="M3400 2385 c0 -8 7 -15 15 -15 9 0 20 -12 25 -26 11 -27 48 -63 65
-63 6 0 2 4 -7 10 -10 5 -18 21 -18 34 0 14 -5 25 -11 25 -6 0 -20 11 -31 25
-22 28 -38 32 -38 10z"/>
<path d="M2116 2357 c-5 -15 -6 -31 -2 -34 11 -11 18 5 14 34 l-4 28 -8 -28z"/>
<path d="M3530 2275 c0 -2 14 -11 30 -20 30 -16 40 -9 18 13 -12 12 -48 17
-48 7z"/>
<path d="M3600 2238 c0 -25 -21 -33 -35 -15 -14 19 -35 23 -35 7 0 -6 8 -14
17 -17 9 -4 26 -16 37 -27 13 -13 21 -16 24 -8 5 15 35 15 50 0 6 -6 15 -8 19
-5 4 4 -6 20 -21 35 -16 15 -26 20 -23 12 3 -11 -2 -16 -15 -17 -16 -2 -17 1
-7 13 9 11 9 18 1 26 -9 9 -12 8 -12 -4z"/>
<path d="M3760 2165 c19 -19 38 -35 43 -35 5 0 31 -18 58 -41 27 -22 49 -36
49 -31 0 17 -155 142 -176 142 -4 0 7 -16 26 -35z"/>
<path d="M3690 2171 c0 -6 8 -16 18 -23 28 -20 36 -39 15 -33 -10 3 -8 0 5 -6
21 -12 30 -29 14 -29 -16 0 -52 32 -52 47 0 10 -6 14 -19 10 -14 -3 -18 -1
-14 9 3 8 -1 14 -10 14 -23 0 -31 -32 -10 -43 9 -6 27 -21 39 -34 22 -23 58
-31 69 -13 3 5 12 7 19 4 29 -11 24 16 -12 60 -34 43 -62 59 -62 37z"/>
<path d="M3422 2113 c5 -25 28 -28 28 -4 0 12 -6 21 -16 21 -9 0 -14 -7 -12
-17z"/>
<path d="M3796 2073 c-11 -11 -6 -21 12 -27 9 -3 23 -9 30 -12 11 -5 11 -3 0
15 -14 22 -33 33 -42 24z"/>
<path d="M3241 1996 c-9 -11 -9 -16 0 -21 10 -7 28 10 29 28 0 12 -17 8 -29
-7z"/>
<path d="M3892 1975 c6 -14 17 -25 24 -25 20 0 41 -71 39 -135 -2 -39 -11 -80
-28 -117 -14 -32 -22 -58 -17 -58 5 0 11 9 15 19 3 11 12 22 20 25 8 3 15 14
15 24 0 10 5 23 11 29 7 7 13 43 15 81 2 71 -3 82 -76 170 -19 21 -30 13 -18
-13z"/>
<path d="M3143 1775 c-8 -22 6 -33 17 -15 13 20 12 30 0 30 -6 0 -13 -7 -17
-15z"/>
<path d="M3080 1660 c0 -5 5 -10 10 -10 6 0 10 5 10 10 0 6 -4 10 -10 10 -5 0
-10 -4 -10 -10z"/>
<path d="M3605 1592 c-2 -3 -2 -9 1 -13 8 -14 40 -11 53 4 8 11 5 14 -19 14
-17 0 -32 -2 -35 -5z"/>
<path d="M3541 1516 c-16 -19 14 -56 44 -56 17 0 16 3 -7 18 -28 17 -36 32
-18 32 6 0 10 5 10 10 0 15 -16 12 -29 -4z"/>
<path d="M3490 1505 c-10 -12 -10 -15 3 -15 19 0 31 16 18 24 -5 3 -14 -1 -21
-9z"/>
<path d="M3587 1501 c3 -12 9 -21 14 -21 14 0 11 16 -5 29 -12 10 -13 8 -9 -8z"/>
</g>
</svg>
